<?xml version="1.0" encoding="UTF-8"?>
<svg width="28px" height="28px" viewBox="0 0 28 28" version="1.1" xmlns="http://www.w3.org/2000/svg" xmlns:xlink="http://www.w3.org/1999/xlink">
    <title>4ult</title>
    <g id="PC调整" stroke="none" stroke-width="1" fill="none" fill-rule="evenodd">
        <g id="9PC端切图" transform="translate(-380, -2663)">
            <g id="4ult" transform="translate(380, 2663)">
                <rect id="矩形" x="0" y="0" width="28" height="28"></rect>
                <g id="编组-6" transform="translate(6, 5)" fill="#F96F25" fill-rule="nonzero">
                    <path d="M13.4461538,0 C13.9304651,0 14.3230769,0.392611835 14.3230769,0.876923077 L14.323,2.63 L15.9538462,2.63076923 C16.5061309,2.63076923 16.9538462,3.07848448 16.9538462,3.63076923 L16.9538462,18 C16.9538462,18.5522847 16.5061309,19 15.9538462,19 L3.63076923,19 C3.07848448,19 2.63076923,18.5522847 2.63076923,18 L2.63,16.369 L0.876923077,16.3692308 C0.392611835,16.3692308 0,15.9766189 0,15.4923077 L0,0.876923077 C0,0.392611835 0.392611835,0 0.876923077,0 L13.4461538,0 Z M12.568,2.63 L12.5689385,1.75384615 L1.75384615,1.75384615 L1.75384615,14.6148 L2.63,14.614 L2.63076923,3.63076923 C2.63076923,3.07848448 3.07848448,2.63076923 3.63076923,2.63076923 L12.568,2.63 Z M11.5315385,7.89230769 L10.0846154,7.89230769 L10.0846154,11.6455385 C10.0846154,12.4230769 10.3286923,13.034 10.8168462,13.4783077 C11.305,13.9226154 11.9612308,14.1447692 12.7855385,14.1447692 C13.604,14.1447692 14.2573077,13.9226154 14.7454615,13.4783077 C15.2336154,13.034 15.4776923,12.4230769 15.4776923,11.6455385 L15.4776923,7.89230769 L14.0307692,7.89230769 L14.0307692,11.6455385 C14.0307692,11.8969231 13.9752308,12.1176154 13.8641538,12.3076154 C13.7530769,12.4976154 13.6025385,12.6437692 13.4125385,12.7460769 C13.2225385,12.8483846 13.0135385,12.8995385 12.7855385,12.8995385 C12.5633846,12.8995385 12.3558462,12.8483846 12.1629231,12.7460769 C11.97,12.6437692 11.8165385,12.4990769 11.7025385,12.312 C11.5885385,12.1249231 11.5315385,11.9027692 11.5315385,11.6455385 L11.5315385,7.89230769 Z M8.61138462,7.89230769 L7.02415385,7.89230769 L4.69153846,12.1015385 L4.69153846,12.9258462 L7.31353846,12.9258462 L7.31353846,14.0307692 L8.61138462,14.0307692 L8.61138462,12.9258462 L9.21646154,12.9258462 L9.21646154,11.8735385 L8.61138462,11.8735385 L8.61138462,7.89230769 Z M7.33984615,9.33923077 L7.33984615,11.8735385 L5.97184615,11.8735385 L7.33984615,9.33923077 Z" id="形状结合"></path>
                </g>
            </g>
        </g>
    </g>
</svg>