<?xml version="1.0" encoding="UTF-8"?>
<svg width="28px" height="28px" viewBox="0 0 28 28" version="1.1" xmlns="http://www.w3.org/2000/svg" xmlns:xlink="http://www.w3.org/1999/xlink">
    <title>cit</title>
    <g id="PC调整" stroke="none" stroke-width="1" fill="none" fill-rule="evenodd">
        <g id="9PC端切图" transform="translate(-380, -2616)">
            <g id="cit" transform="translate(380, 2616)">
                <rect id="Rectangle" x="0" y="0" width="28" height="28"></rect>
                <path d="M21.5833333,6.125 C22.2276655,6.125 22.75,6.64733446 22.75,7.29166667 L22.75,20.8674242 C22.75,21.5117565 22.2276655,22.0340909 21.5833333,22.0340909 L6.41666667,22.0340909 C5.77233446,22.0340909 5.25,21.5117565 5.25,20.8674242 L5.25,7.29166667 C5.25,6.64733446 5.77233446,6.125 6.41666667,6.125 L21.5833333,6.125 Z M21,9.625 L7,9.625 L7,20.2836667 L21,20.2836667 L21,9.625 Z M13.4041652,11.560865 C13.7064379,11.560865 13.9835212,11.6006377 14.2354152,11.6801832 C14.4873091,11.7597286 14.7020819,11.8737438 14.8797334,12.0222286 C15.0573849,12.1707135 15.1965894,12.3470392 15.297347,12.5512059 C15.3981046,12.7553726 15.4484834,12.9847286 15.4484834,13.2392741 C15.4484834,13.398365 15.4325743,13.5402211 15.4007561,13.6648423 C15.3689379,13.7894635 15.3145819,13.9034786 15.2376879,14.0068877 C15.160794,14.1102968 15.0600364,14.2070771 14.9354152,14.2972286 C14.810794,14.3873801 14.6556803,14.4748801 14.4700743,14.5597286 C15.2867409,14.8779105 15.6950743,15.3923044 15.6950743,16.1029105 C15.6950743,16.3574559 15.6380667,16.5934408 15.5240516,16.810865 C15.4100364,17.0282892 15.2509455,17.2165468 15.0467788,17.3756377 C14.8426122,17.5347286 14.6013243,17.6593498 14.3229152,17.7495014 C14.0445061,17.8396529 13.7382561,17.8847286 13.4041652,17.8847286 C13.0806803,17.8847286 12.7797334,17.8409786 12.5013243,17.7534786 C12.2229152,17.6659786 11.9803016,17.5426832 11.7734834,17.3835923 C11.5666652,17.2245014 11.4049228,17.0362438 11.2882561,16.8188195 C11.1715894,16.6013953 11.1132561,16.3627589 11.1132561,16.1029105 C11.1132561,15.3763953 11.5083319,14.8620014 12.2984834,14.5597286 C11.6727258,14.2998801 11.359847,13.8597286 11.359847,13.2392741 C11.359847,12.9847286 11.4102258,12.7553726 11.5109834,12.5512059 C11.6117409,12.3470392 11.7509455,12.1707135 11.928597,12.0222286 C12.1062485,11.8737438 12.3210212,11.7597286 12.5729152,11.6801832 C12.8248091,11.6006377 13.1018925,11.560865 13.4041652,11.560865 Z M16.1166652,16.7090468 C16.1930288,16.7090468 16.2654152,16.723365 16.3338243,16.7520014 C16.4022334,16.7806377 16.4618925,16.8204105 16.5128016,16.8713195 C16.5637106,16.9222286 16.6034834,16.9818877 16.6321197,17.0502968 C16.6607561,17.1187059 16.6750743,17.1910923 16.6750743,17.2674559 C16.6750743,17.3438195 16.6607561,17.4162059 16.6321197,17.484615 C16.6034834,17.5530241 16.5637106,17.6126832 16.5128016,17.6635923 C16.4618925,17.7145014 16.4022334,17.7542741 16.3338243,17.7829105 C16.2654152,17.8115468 16.1930288,17.825865 16.1166652,17.825865 C16.0403016,17.825865 15.9679152,17.8115468 15.8995061,17.7829105 C15.831097,17.7542741 15.7714379,17.7145014 15.7205288,17.6635923 C15.6696197,17.6126832 15.629847,17.5530241 15.6012106,17.484615 C15.5725743,17.4162059 15.5582561,17.3438195 15.5582561,17.2674559 C15.5582561,17.1910923 15.5725743,17.1187059 15.6012106,17.0502968 C15.629847,16.9818877 15.6696197,16.9222286 15.7205288,16.8713195 C15.7714379,16.8204105 15.831097,16.7806377 15.8995061,16.7520014 C15.9679152,16.723365 16.0403016,16.7090468 16.1166652,16.7090468 Z M18.3916652,14.0267741 C18.569847,14.0267741 18.7313243,14.0514332 18.876097,14.1007514 C19.0208697,14.1500695 19.1449606,14.2200695 19.2483697,14.3107514 C19.3517788,14.4014332 19.4313243,14.5112059 19.4870061,14.6400695 C19.5426879,14.7689332 19.5705288,14.9129105 19.5705288,15.0720014 C19.5705288,15.2438195 19.5379152,15.384615 19.4726879,15.4943877 C19.4074606,15.6041605 19.3143925,15.6988195 19.1934834,15.778365 C19.3780288,15.8356377 19.5220061,15.9382514 19.6254152,16.0862059 C19.7288243,16.2341605 19.7805288,16.4163195 19.7805288,16.6326832 C19.7805288,16.810865 19.7455288,16.9731377 19.6755288,17.1195014 C19.6055288,17.265865 19.5076879,17.3915468 19.3820061,17.4965468 C19.2563243,17.6015468 19.1067788,17.6826832 18.9333697,17.7399559 C18.7599606,17.7972286 18.569847,17.825865 18.3630288,17.825865 C18.0862106,17.825865 17.8364379,17.7717741 17.6137106,17.6635923 C17.3909834,17.5554105 17.2128016,17.3835923 17.0791652,17.1481377 C17.0187106,17.0431377 16.9781425,16.9381377 16.9574606,16.8331377 C16.9367788,16.7281377 16.9264379,16.6215468 16.9264379,16.513365 L17.852347,16.513365 C17.8587106,16.6820014 17.9080288,16.8100695 18.0003016,16.8975695 C18.0925743,16.9850695 18.2166652,17.0288195 18.3725743,17.0288195 C18.5380288,17.0288195 18.6589379,16.9842741 18.7353016,16.8951832 C18.8116652,16.8060923 18.849847,16.6963195 18.849847,16.565865 C18.849847,16.4099559 18.8037106,16.2922286 18.7114379,16.2126832 C18.6191652,16.1331377 18.5093925,16.093365 18.3821197,16.093365 L18.3355856,16.0951548 L18.1959834,16.1172286 L18.1959834,15.5301832 L18.2604152,15.5349559 L18.3057561,15.5349559 C18.4234834,15.5349559 18.5189379,15.4999559 18.5921197,15.4299559 C18.6653016,15.3599559 18.7018925,15.2692741 18.7018925,15.1579105 C18.7018925,15.0497286 18.6676879,14.9622286 18.5992788,14.8954105 C18.5308697,14.8285923 18.4425743,14.7951832 18.3343925,14.7951832 C18.219847,14.7951832 18.1275743,14.833365 18.0575743,14.9097286 C17.9875743,14.9860923 17.9525743,15.0847286 17.9525743,15.2056377 L17.0887106,15.2056377 C17.1109834,15.0179105 17.1579152,14.850865 17.2295061,14.7045014 C17.301097,14.5581377 17.3925743,14.4348423 17.5039379,14.334615 C17.6153016,14.2343877 17.7457561,14.1580241 17.8953016,14.1055241 C18.044847,14.0530241 18.2103016,14.0267741 18.3916652,14.0267741 Z M10.222347,11.7279105 L10.222347,17.7256377 L8.6632561,17.7256377 L8.6632561,13.048365 L7.7882561,13.048365 L7.7882561,11.7279105 L10.222347,11.7279105 Z M13.4041652,15.1960923 C13.20265,15.1960923 13.0329531,15.2663574 12.8950743,15.4068877 C12.7571955,15.547418 12.6882561,15.7157892 12.6882561,15.9120014 C12.6882561,16.0127589 12.7068167,16.1082135 12.7439379,16.198365 C12.7810591,16.2885165 12.8314379,16.3667362 12.8950743,16.4330241 C12.9587106,16.499312 13.0342788,16.5523423 13.1217788,16.592115 C13.2092788,16.6318877 13.3034076,16.6517741 13.4041652,16.6517741 C13.4996197,16.6517741 13.591097,16.6318877 13.678597,16.592115 C13.766097,16.5523423 13.8429909,16.499312 13.9092788,16.4330241 C13.9755667,16.3667362 14.0272712,16.2898423 14.0643925,16.2023423 C14.1015137,16.1148423 14.1200743,16.0207135 14.1200743,15.9199559 C14.1200743,15.7184408 14.0498091,15.547418 13.9092788,15.4068877 C13.7687485,15.2663574 13.6003773,15.1960923 13.4041652,15.1960923 Z M13.4041652,12.6029105 C13.2185591,12.6029105 13.0621197,12.6665468 12.934847,12.7938195 C12.8075743,12.9210923 12.7439379,13.0748801 12.7439379,13.2551832 C12.7439379,13.4407892 12.8075743,13.5985544 12.934847,13.7284786 C13.0621197,13.8584029 13.2185591,13.923365 13.4041652,13.923365 C13.4996197,13.923365 13.5871197,13.9048044 13.6666652,13.8676832 C13.7462106,13.830562 13.81515,13.7815089 13.8734834,13.7205241 C13.9318167,13.6595392 13.9782182,13.5892741 14.0126879,13.5097286 C14.0471576,13.4301832 14.0643925,13.3479862 14.0643925,13.2631377 C14.0643925,13.0828347 14.0007561,12.9277211 13.8734834,12.7977968 C13.7462106,12.6678726 13.5897712,12.6029105 13.4041652,12.6029105 Z" id="形状" fill="#F96F25" fill-rule="nonzero"></path>
            </g>
        </g>
    </g>
</svg>