<?xml version="1.0" encoding="UTF-8"?>
<svg width="28px" height="28px" viewBox="0 0 28 28" version="1.1" xmlns="http://www.w3.org/2000/svg" xmlns:xlink="http://www.w3.org/1999/xlink">
    <title>fengxmx</title>
    <g id="PC调整" stroke="none" stroke-width="1" fill="none" fill-rule="evenodd">
        <g id="9PC端切图" transform="translate(-318, -2616)">
            <g id="fengxmx" transform="translate(318, 2616)">
                <rect id="矩形" x="0" y="0" width="28" height="28"></rect>
                <g id="编组" transform="translate(5.8333, 4.8449)">
                    <path d="M0.755791024,5.89590305 L7.49263313,9.90697076 C7.64406166,9.99713023 7.73684211,10.1603514 7.73684211,10.336588 L7.73684211,18.3602612 C7.73684211,18.6364036 7.51298448,18.8602612 7.23684211,18.8602612 C7.14679627,18.8602612 7.05842157,18.8359443 6.98105108,18.7898785 L0.244208976,14.7788107 C0.0927804429,14.6886513 1.31383466e-15,14.5254301 0,14.3491935 L0,6.32552027 C7.72046149e-17,6.04937789 0.223857625,5.82552027 0.5,5.82552027 C0.590045838,5.82552027 0.67842054,5.84983722 0.755791024,5.89590305 Z" id="矩形" fill="#F96F25"></path>
                    <path d="M9.35228225,5.89590305 L16.0891244,9.90697076 C16.2405529,9.99713023 16.3333333,10.1603514 16.3333333,10.336588 L16.3333333,18.3602612 C16.3333333,18.6364036 16.1094757,18.8602612 15.8333333,18.8602612 C15.7432875,18.8602612 15.6549128,18.8359443 15.5775423,18.7898785 L8.8407002,14.7788107 C8.68927167,14.6886513 8.59649123,14.5254301 8.59649123,14.3491935 L8.59649123,6.32552027 C8.59649123,6.04937789 8.82034885,5.82552027 9.09649123,5.82552027 C9.18653707,5.82552027 9.27491177,5.84983722 9.35228225,5.89590305 Z" id="矩形备份" fill="#F96F25" transform="translate(12.4649, 12.3429) scale(-1, 1) translate(-12.4649, -12.3429)"></path>
                    <path d="M8.6136699,0.334478531 L14.7000677,4.16001911 C14.9338633,4.30696886 15.0042658,4.61562394 14.857316,4.84941955 C14.8154125,4.91608768 14.7583553,4.97191624 14.6907909,5.01235881 L8.59511636,8.66109762 C8.27887954,8.85039013 7.88415609,8.85039013 7.56791927,8.66109762 L1.4722447,5.01235881 C1.23530609,4.87053249 1.15820234,4.56348284 1.30002867,4.32654423 C1.34047124,4.25897985 1.3962998,4.20192266 1.46296793,4.16001911 L7.54936573,0.334478531 C7.87467279,0.13001024 8.28836284,0.13001024 8.6136699,0.334478531 Z" id="矩形备份" fill="#F96F25"></path>
                    <polygon id="矩形" fill="#FFFFFF" points="4.01298014 9.72991473 6.99971517 11.4467676 6.99971517 12.847209 4.01298014 11.1303562"></polygon>
                    <polygon id="矩形备份-3" fill="#FFFFFF" points="2.11408488 11.2463179 7 14.0548201 7 15.4552616 2.11408488 12.6467594"></polygon>
                </g>
            </g>
        </g>
    </g>
</svg>