<?xml version="1.0" encoding="UTF-8"?>
<svg width="28px" height="28px" viewBox="0 0 28 28" version="1.1" xmlns="http://www.w3.org/2000/svg" xmlns:xlink="http://www.w3.org/1999/xlink">
    <title>moxyc</title>
    <g id="PC调整" stroke="none" stroke-width="1" fill="none" fill-rule="evenodd">
        <g id="9PC端切图" transform="translate(-318, -2663)">
            <g id="moxyc" transform="translate(318, 2663)">
                <rect id="矩形" x="0" y="0" width="28" height="28"></rect>
                <g id="编组" transform="translate(5.8333, 5.026)" fill="#F96F25">
                    <path d="M0.5,5.64439295 C0.590045838,5.64439295 0.67842054,5.6687099 0.755791024,5.71477574 L7.49263313,9.72584345 C7.64406166,9.81600291 7.73684211,9.97922409 7.73684211,10.1554607 L7.73684211,18.1791339 C7.73684211,18.4552763 7.51298448,18.6791339 7.23684211,18.6791339 C7.14679627,18.6791339 7.05842157,18.654817 6.98105108,18.6087511 L0.244208976,14.5976834 C0.0927804429,14.507524 5.0568769e-16,14.3443028 0,14.1680662 L0,6.14439295 C7.72046149e-17,5.86825058 0.223857625,5.64439295 0.5,5.64439295 Z M10.5,15.152206 L10.5,17.8188727 L9,17.8188727 L9,15.152206 L10.5,15.152206 Z M12.5,14.3903013 L12.5,17.8188727 L11,17.8188727 L11,14.3903013 L12.5,14.3903013 Z M14.5,13.152206 L14.5,17.8188727 L13,17.8188727 L13,13.152206 L14.5,13.152206 Z M16.5,11.8188727 L16.5,17.8188727 L15,17.8188727 L15,11.8188727 L16.5,11.8188727 Z M16.4794222,7.53343133 L17.5314128,8.60269085 L13.5344539,12.2075387 L11.9590876,10.6957573 L9.27491838,13.3452942 L8.22125675,12.2776814 L11.4253583,9.11544995 L11.9449067,8.60269085 L12.4715404,9.10817019 L13.5210876,10.1147573 L16.4794222,7.53343133 Z M8.6136699,0.153351218 L14.7000677,3.9788918 C14.9338633,4.12584154 15.0042658,4.43449663 14.857316,4.66829224 C14.8154125,4.73496037 14.7583553,4.79078893 14.6907909,4.8312315 L8.59511636,8.4799703 C8.27887954,8.66926282 7.88415609,8.66926282 7.56791927,8.4799703 L1.4722447,4.8312315 C1.23530609,4.68940518 1.15820234,4.38235553 1.30002867,4.14541692 C1.34047124,4.07785254 1.3962998,4.02079535 1.46296793,3.9788918 L7.54936573,0.153351218 C7.87467279,-0.0511170728 8.28836284,-0.0511170728 8.6136699,0.153351218 Z" id="形状结合"></path>
                </g>
            </g>
        </g>
    </g>
</svg>