<?xml version="1.0" encoding="UTF-8"?>
<svg width="28px" height="28px" viewBox="0 0 28 28" version="1.1" xmlns="http://www.w3.org/2000/svg" xmlns:xlink="http://www.w3.org/1999/xlink">
    <title>renwl</title>
    <g id="PC调整" stroke="none" stroke-width="1" fill="none" fill-rule="evenodd">
        <g id="9PC端切图" transform="translate(-441, -2616)">
            <g id="renwl" transform="translate(441, 2616)">
                <rect id="矩形备份" x="0" y="0" width="28" height="28"></rect>
                <path d="M20.5074727,6 C21.0597574,6 21.5074727,6.44771525 21.5074727,7 L21.5074727,21 C21.5074727,21.5522847 21.0597574,22 20.5074727,22 L8.50747267,22 C7.95518792,22 7.50747267,21.5522847 7.50747267,21 L7.50667595,19.302 L8.05002768,19.7615705 L8.8605893,18.8647933 L12.6501401,14.6721664 L10.7954693,12.9958024 L7.81632618,16.2909844 L7.50667595,16.029 L7.50667595,14.302 L8.05002768,14.7615705 L8.8605893,13.8647933 L12.6501401,9.67216639 L10.7954693,7.99580236 L7.81632618,11.2909844 L7.50667595,11.029 L7.50747267,7 C7.50747267,6.44771525 7.95518792,6 8.50747267,6 L20.5074727,6 Z M10.5238283,14.4148287 L11.2656966,15.0853743 L8.30418807,18.3618841 L7.97996342,18.720595 L7.61059382,18.4085674 L6,17.048007 L6.64532019,16.2840948 L7.88666009,17.3321015 L10.5238283,14.4148287 Z M19.5074727,17 L13.5074727,17 L13.5074727,18.5 L19.5074727,18.5 L19.5074727,17 Z M19.5074727,14 L13.5074727,14 L13.5074727,15.5 L19.5074727,15.5 L19.5074727,14 Z M10.5766844,9.35635046 L11.3185527,10.0268961 L8.30418807,13.3618841 L7.97996342,13.720595 L7.61059382,13.4085674 L6.01935092,12.0643538 L6.6646711,11.3004416 L7.88601101,12.3326233 L10.5766844,9.35635046 Z M19.5074727,11 L15.5074727,11 L15.5074727,12.5 L19.5074727,12.5 L19.5074727,11 Z" id="形状结合" fill="#F96F25"></path>
            </g>
        </g>
    </g>
</svg>