<?xml version="1.0" encoding="UTF-8"?>
<svg width="28px" height="28px" viewBox="0 0 28 28" version="1.1" xmlns="http://www.w3.org/2000/svg" xmlns:xlink="http://www.w3.org/1999/xlink">
    <title>shijjx</title>
    <g id="PC调整" stroke="none" stroke-width="1" fill="none" fill-rule="evenodd">
        <g id="9PC端切图" transform="translate(-441, -2663)">
            <g id="shijjx" transform="translate(441, 2663)">
                <rect id="矩形" x="0" y="0" width="28" height="28"></rect>
                <path d="M14,4 C19.5228475,4 24,8.4771525 24,14 C24,19.5228475 19.5228475,24 14,24 C8.4771525,24 4,19.5228475 4,14 C4,8.4771525 8.4771525,4 14,4 Z M13.7969971,8.02758789 C13.2447123,8.02758789 12.7969971,8.47530314 12.7969971,9.02758789 L12.7969971,15.0275879 C12.7969971,15.1861969 12.833923,15.3361814 12.8984087,15.4691318 C12.95702,15.7072786 13.1028322,15.9245113 13.324749,16.0686257 L15.8407607,17.7025428 C16.3039457,18.0033387 16.9232745,17.8716963 17.2240703,17.4085113 C17.5248661,16.9453263 17.3932237,16.3259975 16.9300388,16.0252017 L14.7969971,14.6395879 L14.7969971,9.02758789 C14.7969971,8.47530314 14.3492818,8.02758789 13.7969971,8.02758789 Z" id="形状结合" fill="#F96F25"></path>
            </g>
        </g>
    </g>
</svg>