<?xml version="1.0" encoding="UTF-8"?>
<svg width="28px" height="28px" viewBox="0 0 28 28" version="1.1" xmlns="http://www.w3.org/2000/svg" xmlns:xlink="http://www.w3.org/1999/xlink">
    <title>sopmxgl</title>
    <g id="PC调整" stroke="none" stroke-width="1" fill="none" fill-rule="evenodd">
        <g id="9PC端切图" transform="translate(-503, -2616)">
            <g id="sopmxgl" transform="translate(503, 2616)">
                <rect id="矩形" x="0" y="0" width="28" height="28"></rect>
                <g id="编组" transform="translate(5.8333, 5.026)">
                    <path d="M14.7185715,7.41513265 C15.1781878,7.27900763 15.5864876,7.23970202 15.9434711,7.29721582 C16.3004546,7.35472962 16.5838102,7.52108624 16.793538,7.79628568 C17.0032658,8.07148512 17.1081297,8.48574705 17.1081297,9.03907146 L15.0733239,10.1356069 C15.0554747,9.85963887 14.9952337,9.65560053 14.892601,9.52349191 C14.7899682,9.39138329 14.6538683,9.31747043 14.4843011,9.30175334 C14.3147339,9.28603625 14.1206242,9.31478097 13.9019718,9.3879875 C13.6833194,9.46119404 13.4445867,9.56753311 13.1857737,9.70700473 C13.0162065,9.79838268 12.8466393,9.90760981 12.6770722,10.0346861 C12.507505,10.1617624 12.3535559,10.3071961 12.2152248,10.4709871 C12.0768937,10.6347782 11.9631052,10.807655 11.8738593,10.9896174 C11.7846135,11.1715799 11.7399905,11.3651939 11.7399905,11.5704594 C11.7399905,11.7578757 11.7756889,11.8903562 11.8470856,11.9679009 C11.9184823,12.0454456 12.0590445,12.0767932 12.2687723,12.0619435 C12.4785001,12.0470939 12.7685492,11.98896 13.1389196,11.8875417 C13.5092899,11.7861235 13.9934488,11.6501596 14.5913961,11.47965 C14.7698879,11.4191611 15.0175452,11.3504044 15.334368,11.2733801 C15.6511909,11.1963558 15.9657826,11.1763124 16.2781431,11.2132501 C16.5905037,11.2501878 16.8604725,11.3791356 17.0880494,11.6000933 C17.3156264,11.8210511 17.4294149,12.1992676 17.4294149,12.7347428 C17.4294149,13.1720476 17.3446313,13.6238053 17.1750642,14.0900159 C17.005497,14.5562266 16.7533774,15.0156074 16.4187054,15.4681586 C16.0840334,15.9207097 15.6690401,16.3563042 15.1737255,16.774942 C14.6784109,17.1935798 14.1050061,17.5784406 13.4535113,17.9295243 C12.9269606,18.2132769 12.416028,18.4239098 11.9207134,18.5614231 C11.4253988,18.6989364 10.9880941,18.731561 10.6087991,18.6592969 C10.2295041,18.5870327 9.92829932,18.3968276 9.70518464,18.0886816 C9.48206996,17.7805356 9.37497491,17.3295465 9.3838995,16.7357144 L11.4187054,15.6391789 C11.4187054,15.960464 11.4767152,16.2014031 11.5927348,16.361996 C11.7087545,16.5225889 11.8627036,16.6203502 12.0545822,16.65528 C12.2464609,16.6902097 12.4718067,16.671406 12.7306197,16.5988687 C12.9894327,16.5263315 13.2571704,16.4155178 13.5338326,16.2664274 C13.7212489,16.1654307 13.9220521,16.0416019 14.1362422,15.8949411 C14.3504323,15.7482803 14.5512355,15.5798286 14.7386518,15.389586 C14.9260682,15.1993434 15.0822484,14.9924665 15.2071927,14.7689551 C15.3321369,14.5454437 15.394609,14.313206 15.394609,14.0722422 C15.394609,13.8134291 15.3120566,13.648188 15.1469517,13.5765187 C14.9818468,13.5048494 14.7654256,13.4876077 14.497688,13.5247936 C14.2299504,13.5619796 13.9265144,13.6317899 13.5873801,13.7342245 C13.2482458,13.8366591 12.9046492,13.9325738 12.5565903,14.0219687 C12.1996068,14.1250974 11.8515479,14.2033365 11.5124136,14.2566859 C11.1732792,14.3100353 10.8698433,14.3062177 10.6021057,14.2452332 C10.334368,14.1842487 10.1179468,14.0442939 9.95284193,13.825369 C9.78773707,13.606444 9.70518464,13.2783291 9.70518464,12.8410243 C9.70518464,12.350172 9.81004854,11.8675129 10.0197763,11.393047 C10.2295041,10.9185811 10.5039352,10.4694883 10.8430695,10.0457686 C11.1822038,9.62204878 11.5659611,9.2367543 11.9943413,8.88988509 C12.4227214,8.54301588 12.8511016,8.25415649 13.2794818,8.02330692 C13.7792587,7.75398242 14.2589553,7.55125766 14.7185715,7.41513265 Z M0.5,5.64439295 C0.590045838,5.64439295 0.67842054,5.6687099 0.755791024,5.71477574 L7.49263313,9.72584345 C7.64406166,9.81600291 7.73684211,9.97922409 7.73684211,10.1554607 L7.73684211,18.1791339 C7.73684211,18.4552763 7.51298448,18.6791339 7.23684211,18.6791339 C7.14679627,18.6791339 7.05842157,18.654817 6.98105108,18.6087511 L0.244208976,14.5976834 C0.0927804429,14.507524 5.0568769e-16,14.3443028 0,14.1680662 L0,6.14439295 C7.72046149e-17,5.86825058 0.223857625,5.64439295 0.5,5.64439295 Z M2.11408488,11.0651906 L2.11408488,12.4656321 L7,15.2741343 L7,13.8736928 L2.11408488,11.0651906 Z M4.01298014,9.54878741 L4.01298014,10.9492289 L6.99971517,12.6660817 L6.99971517,11.2656402 L4.01298014,9.54878741 Z M8.6136699,0.153351218 L14.7000677,3.9788918 C14.9338633,4.12584154 15.0042658,4.43449663 14.857316,4.66829224 C14.8154125,4.73496037 14.7583553,4.79078893 14.6907909,4.8312315 L8.59511636,8.4799703 C8.27887954,8.66926282 7.88415609,8.66926282 7.56791927,8.4799703 L1.4722447,4.8312315 C1.23530609,4.68940518 1.15820234,4.38235553 1.30002867,4.14541692 C1.34047124,4.07785254 1.3962998,4.02079535 1.46296793,3.9788918 L7.54936573,0.153351218 C7.87467279,-0.0511170728 8.28836284,-0.0511170728 8.6136699,0.153351218 Z" id="形状结合" fill="#F96F25"></path>
                    <g id="S" transform="translate(9.3834, 7.2716)"></g>
                </g>
            </g>
        </g>
    </g>
</svg>