<?xml version="1.0" encoding="UTF-8"?>
<svg width="28px" height="28px" viewBox="0 0 28 28" version="1.1" xmlns="http://www.w3.org/2000/svg" xmlns:xlink="http://www.w3.org/1999/xlink">
    <title>xingcpkf</title>
    <g id="PC调整" stroke="none" stroke-width="1" fill="none" fill-rule="evenodd">
        <g id="9PC端切图" transform="translate(-503, -2663)">
            <g id="xingcpkf" transform="translate(503, 2663)">
                <rect id="矩形" x="0" y="0" width="28" height="28"></rect>
                <path d="M22.3333333,6.83333333 C22.8856181,6.83333333 23.3333333,7.28104858 23.3333333,7.83333333 L23.3333333,18.0072464 C23.3333333,18.5595311 22.8856181,19.0072464 22.3333333,19.0072464 L5.66666667,19.0072464 C5.11438192,19.0072464 4.66666667,18.5595311 4.66666667,18.0072464 L4.66666667,7.83333333 C4.66666667,7.28104858 5.11438192,6.83333333 5.66666667,6.83333333 L22.3333333,6.83333333 Z M15.5498277,8.4871716 L11.2578496,16.0319141 L12.6687242,16.8345184 L16.9607022,9.28977587 L15.5498277,8.4871716 Z M9.87240521,9.40736349 L6.42910262,12.8506661 L6.49810262,12.9203635 L6.42910262,12.9899136 L9.87240521,16.4332162 L11.0201727,15.2854487 L8.65510262,12.9203635 L11.0201727,10.555131 L9.87240521,9.40736349 Z M18.1275948,9.40736349 L16.9798273,10.555131 L19.3451026,12.9203635 L16.9798273,15.2854487 L18.1275948,16.4332162 L21.5708974,12.9899136 L21.5011026,12.9193635 L21.5708974,12.8506661 L18.1275948,9.40736349 Z M7.10144928,20.6304348 L20.8985507,20.6304348 C21.3467818,20.6304348 21.7101449,20.9937979 21.7101449,21.442029 C21.7101449,21.8902601 21.3467818,22.2536232 20.8985507,22.2536232 L7.10144928,22.2536232 C6.65321817,22.2536232 6.28985507,21.8902601 6.28985507,21.442029 C6.28985507,20.9937979 6.65321817,20.6304348 7.10144928,20.6304348 Z" id="形状结合" fill="#F96F25"></path>
            </g>
        </g>
    </g>
</svg>