<?xml version="1.0" encoding="UTF-8"?>
<svg width="1482px" height="555px" viewBox="0 0 1482 555" version="1.1" xmlns="http://www.w3.org/2000/svg" xmlns:xlink="http://www.w3.org/1999/xlink">
    <title>编组 46</title>
    <defs>
        <rect id="path-1" x="0" y="0" width="61.0830565" height="28" rx="2"></rect>
        <mask id="mask-2" maskContentUnits="userSpaceOnUse" maskUnits="objectBoundingBox" x="0" y="0" width="61.0830565" height="28" fill="white">
            <use xlink:href="#path-1"></use>
        </mask>
        <rect id="path-3" x="0" y="0" width="61.0830565" height="28" rx="2"></rect>
        <mask id="mask-4" maskContentUnits="userSpaceOnUse" maskUnits="objectBoundingBox" x="0" y="0" width="61.0830565" height="28" fill="white">
            <use xlink:href="#path-3"></use>
        </mask>
        <rect id="path-5" x="0" y="0" width="61.0830565" height="28" rx="2"></rect>
        <mask id="mask-6" maskContentUnits="userSpaceOnUse" maskUnits="objectBoundingBox" x="0" y="0" width="61.0830565" height="28" fill="white">
            <use xlink:href="#path-5"></use>
        </mask>
        <rect id="path-7" x="0" y="0" width="61.0830565" height="28" rx="2"></rect>
        <mask id="mask-8" maskContentUnits="userSpaceOnUse" maskUnits="objectBoundingBox" x="0" y="0" width="61.0830565" height="28" fill="white">
            <use xlink:href="#path-7"></use>
        </mask>
        <rect id="path-9" x="0" y="0" width="61.0830565" height="28" rx="2"></rect>
        <mask id="mask-10" maskContentUnits="userSpaceOnUse" maskUnits="objectBoundingBox" x="0" y="0" width="61.0830565" height="28" fill="white">
            <use xlink:href="#path-9"></use>
        </mask>
        <rect id="path-11" x="0" y="0" width="61.0830565" height="28" rx="2"></rect>
        <mask id="mask-12" maskContentUnits="userSpaceOnUse" maskUnits="objectBoundingBox" x="0" y="0" width="61.0830565" height="28" fill="white">
            <use xlink:href="#path-11"></use>
        </mask>
        <rect id="path-13" x="0" y="0" width="61.0830565" height="28" rx="2"></rect>
        <mask id="mask-14" maskContentUnits="userSpaceOnUse" maskUnits="objectBoundingBox" x="0" y="0" width="61.0830565" height="28" fill="white">
            <use xlink:href="#path-13"></use>
        </mask>
        <rect id="path-15" x="0" y="0" width="61.0830565" height="28" rx="2"></rect>
        <mask id="mask-16" maskContentUnits="userSpaceOnUse" maskUnits="objectBoundingBox" x="0" y="0" width="61.0830565" height="28" fill="white">
            <use xlink:href="#path-15"></use>
        </mask>
        <linearGradient x1="50%" y1="0%" x2="50%" y2="100%" id="linearGradient-17">
            <stop stop-color="#FDA84C" stop-opacity="0" offset="0%"></stop>
            <stop stop-color="#666773" offset="100%"></stop>
        </linearGradient>
        <linearGradient x1="50%" y1="0%" x2="50%" y2="100%" id="linearGradient-18">
            <stop stop-color="#FDA84C" stop-opacity="0" offset="0%"></stop>
            <stop stop-color="#666773" offset="100%"></stop>
        </linearGradient>
    </defs>
    <g id="PC调整" stroke="none" stroke-width="1" fill="none" fill-rule="evenodd">
        <g id="9PC端切图" transform="translate(-237, -981)">
            <g id="编组-46" transform="translate(238, 982)">
                <rect id="矩形备份-52" stroke="#E3E3E3" fill="#FFFFFF" x="-0.5" y="-0.5" width="1481" height="554"></rect>
                <path d="M1375.5,23.5 L1375.5,399.5 L149.5,399.5 L149.5,23.5 L1375.5,23.5 Z" id="矩形备份-59" stroke-opacity="0.4" stroke="#F96F25" fill="#FFFFFF" opacity="0.800000012" transform="translate(762.5, 211.5) scale(-1, 1) translate(-762.5, -211.5)"></path>
                <polygon id="矩形备份-78" fill="#F5F5F7" transform="translate(741, 159.5) scale(-1, 1) translate(-741, -159.5)" points="170 110 1312 110 1312 209 170 209"></polygon>
                <g id="编组-27" transform="translate(170, 222)">
                    <polygon id="矩形备份-84" fill="#F5F5F7" transform="translate(108, 39.5) scale(-1, 1) translate(-108, -39.5)" points="1.82849105e-12 0 216 -3.33828354e-11 216 79 1.82849105e-12 79"></polygon>
                    <text id="合同/订单360" font-family="PingFangSC-Semibold, PingFang SC" font-size="15" font-weight="500" fill="#F96F25">
                        <tspan x="59.1695122" y="35">合同/订单360</tspan>
                    </text>
                    <text id="LTC" font-family="Helvetica" font-size="15" font-weight="normal" fill="#F96F25">
                        <tspan x="92.250811" y="58">LTC</tspan>
                    </text>
                </g>
                <g id="编组-27备份" transform="translate(170, 314)">
                    <polygon id="矩形备份-84" fill="#F5F5F7" transform="translate(77, 39.5) scale(-1, 1) translate(-77, -39.5)" points="1.3036464e-12 0 154 -3.33828354e-11 154 79 1.3036464e-12 79"></polygon>
                    <text id="智能销售管理-ISMP" font-family="PingFangSC-Medium, PingFang SC" font-size="15" font-weight="400" fill="#303258">
                        <tspan x="30.9452055" y="35">智能销售管理</tspan>
                        <tspan x="57.5777055" y="56">ISMP</tspan>
                    </text>
                </g>
                <g id="编组-67" transform="translate(33, 437.0164)">
                    <g id="编组-41" transform="translate(0, 32.9878)" fill="#666773">
                        <g id="编组-27备份-8" transform="translate(2, 0)" font-family="AlimamaShuHeiTi-Bold, Alimama ShuHeiTi" font-size="16" font-weight="bold">
                            <text id="平台支撑层">
                                <tspan x="0" y="15">平台支撑层</tspan>
                            </text>
                        </g>
                        <text id="（可组装构件）" font-family="PingFangSC-Regular, PingFang SC" font-size="12" font-weight="normal">
                            <tspan x="0" y="32">（可组装构件）</tspan>
                        </text>
                    </g>
                    <g id="编组-21备份" transform="translate(27, 0)" fill="#999BA6" fill-rule="nonzero">
                        <path d="M29,23.8445783 L29,25.7227334 L17.8971117,25.7227334 L17.8971117,23.8445783 L29,23.8445783 Z M3.74190036,16.4757022 C5.81574573,16.4757022 7.48380073,18.1977254 7.48380073,20.3063138 C7.48380073,22.4149023 5.81574573,24.1369254 3.74190036,24.1369254 C3.264329,24.1369254 2.79769119,24.0448031 2.36193565,23.8677826 C1.85026019,23.6599204 1.60397084,23.07662 1.81183298,22.5649445 C2.01969513,22.053269 2.60299561,21.8069797 3.11467106,22.0148418 C3.31258118,22.0952405 3.52373274,22.1369254 3.74190036,22.1369254 C4.69667451,22.1369254 5.48380073,21.3243326 5.48380073,20.3063138 C5.48380073,19.2882951 4.69667451,18.4757022 3.74190036,18.4757022 C2.78712622,18.4757022 2,19.2882951 2,20.3063138 C2,20.4735155 2.02111335,20.6368328 2.06223403,20.7937798 C2.20220993,21.3280318 1.882586,21.8746015 1.348334,22.0145774 C0.814082009,22.1545533 0.267512311,21.8349294 0.127536414,21.3006774 C0.0431351849,20.9785396 0,20.6448776 0,20.3063138 C0,18.1977254 1.668055,16.4757022 3.74190036,16.4757022 Z M22.965237,2.34043806 L27.9773733,17.3510103 C28.5763421,19.1448291 27.6077248,21.0845667 25.813906,21.6835356 C25.748435,21.7053968 25.6823179,21.7252734 25.6156455,21.7431383 L23.3737947,22.3438404 C21.5470582,22.833313 19.6693997,21.7492463 19.1799272,19.9225099 C19.1620623,19.8558374 19.1462175,19.7886401 19.1324144,19.7210099 L15.9677657,4.21540485 C15.6056492,2.44116836 16.687498,0.691710184 18.436609,0.223037311 L18.8309722,0.117368007 C20.5800832,-0.351304867 22.3917208,0.622845949 22.965237,2.34043806 Z M15.1365849,3.58790433 L16.3600977,11.6751426 L10.6017667,17.5033638 C9.47930174,18.6394523 7.64838242,18.6504965 6.5122939,17.5280315 C6.49986706,17.5157537 6.48755173,17.5033635 6.47534944,17.4908625 C5.3199877,16.3072184 5.28641127,14.4284969 6.39874062,13.2043246 L15.1365849,3.58790433 Z M8.19748846,14.6450907 C7.6296223,14.6450907 7.16927582,15.1203312 7.16927582,15.70657 C7.16927582,16.2928089 7.6296223,16.7680494 8.19748846,16.7680494 C8.76535462,16.7680494 9.22570109,16.2928089 9.22570109,15.70657 C9.22570109,15.1203312 8.76535462,14.6450907 8.19748846,14.6450907 Z M19.1832527,2.22082328 C18.4518973,2.41678939 18.0230183,3.18771405 18.2253246,3.94273172 C18.427631,4.69774938 19.1845135,5.15095022 19.9158689,4.95498412 C20.6472244,4.75901801 21.0761034,3.98809335 20.873797,3.23307568 C20.6714906,2.47805802 19.9146082,2.02485718 19.1832527,2.22082328 Z" id="形状结合"></path>
                    </g>
                </g>
                <g id="编组-62" transform="translate(35, 333)">
                    <g id="编组-40" transform="translate(0, 31)" fill="#666773">
                        <g id="编组-27备份-9" font-family="AlimamaShuHeiTi-Bold, Alimama ShuHeiTi" font-size="16" font-weight="bold">
                            <text id="业务作业层">
                                <tspan x="0" y="15">业务作业层</tspan>
                            </text>
                        </g>
                        <text id="（多模块）" font-family="PingFangSC-Regular, PingFang SC" font-size="12" font-weight="normal">
                            <tspan x="10" y="32">（多模块）</tspan>
                        </text>
                    </g>
                    <g id="编组-136备份" transform="translate(28, 0)" fill="#999BA6" fill-rule="nonzero">
                        <path d="M22.6090735,14.3756486 C23.1814639,15.1003956 23.1233953,15.9800504 22.4182767,16.6743691 L13.2268491,22.6161884 C12.2424483,23.1279372 10.7603168,23.1279372 9.77591603,22.6161884 L0.58172326,16.6743691 C-0.120630112,15.9800504 -0.181463869,15.1031618 0.390926478,14.3756486 C0.465586089,14.4420376 0.523654674,14.5028943 0.58172326,14.5665171 L9.77591603,20.5083363 C10.7603168,21.0228514 12.2424483,21.0200852 13.224084,20.5083363 L22.4182767,14.5665171 C22.4763453,14.5056605 22.5344139,14.4420376 22.6090735,14.3756486 Z M22.6090735,10.350813 C23.1814639,11.07556 23.1233953,11.9524486 22.4182767,12.6495335 L13.2268491,18.5885865 C12.2424483,19.1003354 10.7603168,19.1031016 9.77591603,18.5885865 L0.58172326,12.6495335 C-0.120630112,11.9552148 -0.181463869,11.07556 0.390926478,10.350813 C0.465586089,10.417202 0.523654674,10.4808248 0.58172326,10.5444477 L9.77591603,16.4835007 C10.7603168,16.9980157 12.2424483,16.9952495 13.224084,16.4835007 L22.4182767,10.5416815 C22.4763453,10.4808248 22.5344139,10.417202 22.6090735,10.350813 Z M13.224084,0.386924327 L22.4182767,6.32874353 C23.1925246,6.99540016 23.1952897,7.96080747 22.4182767,8.62746409 L13.224084,14.5665171 C12.2424483,15.0837984 10.7603168,15.0837984 9.77591603,14.5665171 L0.58172326,8.62746409 C-0.192524552,7.96357368 -0.195289723,6.99540016 0.58172326,6.32874353 L9.77315086,0.386924327 C10.7547865,-0.127590744 12.236918,-0.130356954 13.224084,0.386924327 Z" id="形状结合"></path>
                    </g>
                </g>
                <g id="编组-65" transform="translate(35, 222)">
                    <g id="编组-34" transform="translate(0, 40)" fill="#666773">
                        <g id="编组-27备份-10" font-family="AlimamaShuHeiTi-Bold, Alimama ShuHeiTi" font-size="16" font-weight="bold">
                            <text id="流程运营层">
                                <tspan x="0" y="15">流程运营层</tspan>
                            </text>
                        </g>
                        <text id="（多战线）" font-family="PingFangSC-Regular, PingFang SC" font-size="12" font-weight="normal">
                            <tspan x="10" y="32">（多战线）</tspan>
                        </text>
                    </g>
                    <g id="编组-64" transform="translate(20, 0)">
                        <rect id="矩形" x="0" y="0" width="40" height="40"></rect>
                        <path d="M25.3375633,23.0656724 C31.8737795,23.0656724 34.8813449,26.6172699 34.8813449,28.9600854 L34.8813449,30.6599831 C34.8813449,30.9843199 34.5231009,31.2465496 34.0843526,31.2465496 L16.5867487,31.25 C16.1480004,31.25 15.7937816,30.9843199 15.7937816,30.6634335 L15.7937816,28.9600854 C15.7937816,26.6172699 18.8013471,23.0656724 25.3375633,23.0656724 Z M11.7765964,20.0096673 L13.9225488,26.5272577 C13.7614277,26.8981179 13.6364669,27.2792282 13.5500394,27.6682909 L7.04296709,27.6710819 C6.64078116,27.6710819 6.30962348,27.4478368 6.25722349,27.1634651 L6.25,27.0845154 L6.25,25.3811673 C6.25,23.5868455 8.0141665,21.0834809 11.7765964,20.0096673 Z M17.5004558,22.6791802 C16.3577968,23.3680035 15.4164029,24.2050328 14.7257944,25.1423209 L13.916977,22.6794708 L17.5004558,22.6791802 Z M25.4406003,12.3289181 C28.0768082,12.3852645 30.1696755,14.5626515 30.1133291,17.1988594 C30.0569826,19.8350673 27.8795957,21.9279346 25.2433878,21.8715882 C22.6876748,21.8192665 20.6270054,19.7585971 20.5666343,17.1988594 C20.5143126,14.5666762 22.6031552,12.3852645 25.239363,12.3289181 Z M17.0104651,19.7525228 L17.8660474,21.4864981 L14.5543541,21.4864981 L15.2973407,19.7525228 L17.0104651,19.7525228 Z M15.8968187,8.75 C17.9667273,8.79424232 19.7016588,10.1461361 20.3242467,12.0010389 C18.96339,13.3341178 18.1404601,15.1987538 18.1811601,17.2462771 L18.1923224,17.5132349 C18.1949689,17.5572568 18.1980091,17.6011707 18.2014397,17.644973 C17.4699045,18.0740971 16.6122505,18.312177 15.6996062,18.29267 C13.1438932,18.2403484 11.0832238,16.179679 11.0228526,13.6199413 C10.970531,10.9877581 13.0593735,8.80634643 15.6955814,8.75 L15.8968187,8.75 Z" id="形状结合" fill="#999BA6" fill-rule="nonzero"></path>
                    </g>
                </g>
                <g id="编组-66" transform="translate(21, 110)">
                    <g id="编组-35" transform="translate(0, 40)" fill="#666773">
                        <g id="编组-27备份-11" transform="translate(14, 0)" font-family="AlimamaShuHeiTi-Bold, Alimama ShuHeiTi" font-size="16" font-weight="bold">
                            <text id="经营决策层">
                                <tspan x="0" y="15">经营决策层</tspan>
                            </text>
                        </g>
                        <text id="（多主题、多维度）" font-family="PingFangSC-Regular, PingFang SC" font-size="12" font-weight="normal">
                            <tspan x="0" y="32">（多主题、多维度）</tspan>
                        </text>
                    </g>
                    <g id="编组" transform="translate(34, 0)">
                        <rect id="矩形" x="0" y="0" width="40" height="40"></rect>
                        <path d="M15.0902719,22.0972685 L18.1723333,31.4602685 L9.30268522,31.4631538 C8.80760038,31.4631538 8.40056169,31.1864207 8.34086984,30.8353207 L8.33333333,30.7461135 L8.33333333,28.6638787 C8.33333333,26.4702713 10.4902354,23.4097752 15.0902719,22.0972685 Z M25.1670192,22.1732636 C29.5902387,23.5247404 31.6666667,26.5115821 31.6666667,28.6638787 L31.6666667,30.7418956 C31.6666667,31.1383767 31.2287361,31.4589359 30.6923942,31.4589359 L22.4823333,31.4602685 L25.1670192,22.1732636 Z M23.1732001,25.3612264 L21.4873182,31.1945597 L19.6257424,31.1945597 L17.7057256,25.3612264 L23.1732001,25.3612264 Z M21.4873182,21.7832184 L22.5332133,23.9028931 L18.4848785,23.9028931 L19.3931325,21.7832184 L21.4873182,21.7832184 Z M25.8380703,14.2865271 C25.9069502,11.0639305 23.3485529,8.40221326 20.1259562,8.33333333 L19.8799565,8.33333333 C16.6573598,8.40221326 14.1038825,11.0688505 14.1678424,14.2865271 C14.2416424,17.4156439 16.7606797,19.9346812 19.8848765,19.9986412 C23.1074731,20.0675211 25.7691903,17.5091238 25.8380703,14.2865271 Z" id="形状结合" fill="#999BA6" fill-rule="nonzero"></path>
                    </g>
                </g>
                <g id="编组-27备份-2" transform="translate(333, 314)">
                    <polygon id="矩形备份-84" fill="#F5F5F7" transform="translate(77, 39.5) scale(-1, 1) translate(-77, -39.5)" points="1.3036464e-12 0 154 -3.33828354e-11 154 79 1.3036464e-12 79"></polygon>
                    <text id="产品配置报价-CPQ" font-family="PingFangSC-Medium, PingFang SC" font-size="15" font-weight="400" fill="#303258">
                        <tspan x="32" y="35">产品配置报价</tspan>
                        <tspan x="60.83" y="56">CPQ</tspan>
                    </text>
                </g>
                <g id="编组-27备份-3" transform="translate(498, 314)">
                    <polygon id="矩形备份-84" fill="#F5F5F7" transform="translate(77, 39.5) scale(-1, 1) translate(-77, -39.5)" points="1.3036464e-12 0 154 -3.33828354e-11 154 79 1.3036464e-12 79"></polygon>
                    <text id="智能合同管理-ICM" font-family="PingFangSC-Medium, PingFang SC" font-size="15" font-weight="400" fill="#303258">
                        <tspan x="30.9452055" y="35">智能合同管理</tspan>
                        <tspan x="61.8377055" y="56">ICM</tspan>
                    </text>
                </g>
                <g id="编组-27备份-5" transform="translate(830, 314)">
                    <polygon id="矩形备份-84" fill="#F5F5F7" transform="translate(63, 39.5) scale(-1, 1) translate(-63, -39.5)" points="1.06661978e-12 0 126 -3.33828354e-11 126 79 1.06661978e-12 79"></polygon>
                    <text id="新产品导入-NPI" font-family="PingFangSC-Medium, PingFang SC" font-size="15" font-weight="400" fill="#303258">
                        <tspan x="24.5" y="35">新产品导入</tspan>
                        <tspan x="49.7525" y="56">NPI</tspan>
                    </text>
                </g>
                <g id="编组-27备份-6" transform="translate(965, 314)">
                    <polygon id="矩形备份-84" fill="#F5F5F7" transform="translate(102.5, 39.5) scale(-1, 1) translate(-102.5, -39.5)" points="1.73537345e-12 0 205 -3.33828354e-11 205 79 1.73537345e-12 79"></polygon>
                    <text id="产品配置生命周期管理-CLM" font-family="PingFangSC-Medium, PingFang SC" font-size="15" font-weight="400" fill="#303258">
                        <tspan x="28.025641" y="35">产品配置生命周期管理</tspan>
                        <tspan x="86.375641" y="56">CLM</tspan>
                    </text>
                </g>
                <g id="编组-27备份-7" transform="translate(1181, 314)">
                    <polygon id="矩形备份-84" fill="#F5F5F7" transform="translate(65.5, 39.5) scale(-1, 1) translate(-65.5, -39.5)" points="1.10894596e-12 0 131 -3.33828354e-11 131 79 1.10894596e-12 79"></polygon>
                    <text id="集成计划-IPS" font-family="PingFangSC-Medium, PingFang SC" font-size="15" font-weight="400" fill="#303258">
                        <tspan x="35.5" y="35">集成计划</tspan>
                        <tspan x="53.8675" y="56">IPS</tspan>
                    </text>
                </g>
                <g id="编组-27备份-4" transform="translate(665, 314)">
                    <polygon id="矩形备份-84" fill="#F5F5F7" transform="translate(77, 39.5) scale(-1, 1) translate(-77, -39.5)" points="1.3036464e-12 0 154 -3.33828354e-11 154 79 1.3036464e-12 79"></polygon>
                    <text id="开票与回款管理" font-family="PingFangSC-Medium, PingFang SC" font-size="15" font-weight="400" fill="#303258">
                        <tspan x="24.5" y="35">开票与回款管理</tspan>
                    </text>
                </g>
                <g id="编组-33" transform="translate(401, 222)">
                    <polygon id="矩形备份-85" fill="#F5F5F7" transform="translate(108, 39.5) scale(-1, 1) translate(-108, -39.5)" points="1.82849105e-12 0 216 -3.33828354e-11 216 79 1.82849105e-12 79"></polygon>
                    <text id="物的360" font-family="PingFangSC-Semibold, PingFang SC" font-size="15" font-weight="500" fill="#F96F25">
                        <tspan x="80.0268293" y="35">物的360</tspan>
                    </text>
                    <text id="ISC" font-family="Helvetica" font-size="15" font-weight="normal" fill="#F96F25">
                        <tspan x="96.0243879" y="58">ISC</tspan>
                    </text>
                </g>
                <g id="编组-25" transform="translate(631, 222)">
                    <polygon id="矩形备份-86" fill="#F5F5F7" transform="translate(108, 39.5) scale(-1, 1) translate(-108, -39.5)" points="1.82849105e-12 0 216 -3.33828354e-11 216 79 1.82849105e-12 79"></polygon>
                    <text id="研发项目360" font-family="PingFangSC-Semibold, PingFang SC" font-size="15" font-weight="500" fill="#F96F25">
                        <tspan x="62.9195122" y="35">研发项目360</tspan>
                    </text>
                    <text id="IPD" font-family="Helvetica" font-size="15" font-weight="normal" fill="#F96F25">
                        <tspan x="93.9170708" y="58">IPD</tspan>
                    </text>
                </g>
                <g id="编组-25备份" transform="translate(865, 222)">
                    <polygon id="矩形备份-86" fill="#F5F5F7" transform="translate(89.5, 39.5) scale(-1, 1) translate(-89.5, -39.5)" points="1.51527731e-12 0 179 -3.33828354e-11 179 79 1.51527731e-12 79"></polygon>
                    <text id="供应链360" font-family="PingFangSC-Semibold, PingFang SC" font-size="15" font-weight="500" fill="#F96F25">
                        <tspan x="54" y="35">供应链360</tspan>
                    </text>
                    <text id="ITR" opacity="0.800000012" font-family="Helvetica" font-size="15" font-weight="normal" fill="#F96F25">
                        <tspan x="77.9187012" y="58">ITR</tspan>
                    </text>
                </g>
                <g id="编组-25备份-2" transform="translate(1056, 222)">
                    <polygon id="矩形备份-86" fill="#F5F5F7" transform="translate(89.5, 39.5) scale(-1, 1) translate(-89.5, -39.5)" points="1.51527731e-12 0 179 -3.33828354e-11 179 79 1.51527731e-12 79"></polygon>
                    <text id="财务360" font-family="PingFangSC-Semibold, PingFang SC" font-size="15" font-weight="500" fill="#F96F25">
                        <tspan x="59.5" y="35">财务360</tspan>
                    </text>
                    <text id="FIN" opacity="0.800000012" font-family="Helvetica" font-size="15" font-weight="normal" fill="#F96F25">
                        <tspan x="75.9187012" y="58">FIN</tspan>
                    </text>
                </g>
                <g id="编组-25备份-5" transform="translate(1247, 222)">
                    <polygon id="矩形备份-86" fill="#F5F5F7" transform="translate(32.5, 39.5) scale(-1, 1) translate(-32.5, -39.5)" points="5.50240363e-13 0 65 -3.33828354e-11 65 79 5.50240363e-13 79"></polygon>
                    <text id="…" opacity="0.800000012" font-family="PingFangSC-Semibold, PingFang SC" font-size="16" font-weight="500" fill="#F96F25">
                        <tspan x="24" y="41">…</tspan>
                    </text>
                </g>
                <path d="M1375.5,410.5 L1375.5,519.5 L149.5,519.5 L149.5,410.5 L1375.5,410.5 Z" id="矩形备份-77" stroke="#E3E3E3" fill="#FFFFFF" transform="translate(762.5, 465) scale(-1, 1) translate(-762.5, -465)"></path>
                <g id="编组-23" transform="translate(638, 53)" fill="#303258" font-family="AlimamaShuHeiTi-Bold, Alimama ShuHeiTi" font-size="24" font-weight="bold">
                    <text id="EIMOS-企业级业务应用">
                        <tspan x="0" y="23">EIMOS 企业级业务应用</tspan>
                    </text>
                </g>
                <g id="编组-23备份" transform="translate(715.5, 424)" fill="#303258" font-family="AlimamaShuHeiTi-Bold, Alimama ShuHeiTi" font-size="18" font-weight="bold">
                    <text id="EIMOS平台">
                        <tspan x="0.902" y="17">EIMOS平台</tspan>
                    </text>
                </g>
                <text id="智能经营解析IBA" font-family="AlimamaShuHeiTi-Bold, Alimama ShuHeiTi" font-size="18" font-weight="bold" fill="#F96F25">
                    <tspan x="671.79" y="145">智能经营解析IBA</tspan>
                </text>
                <g id="编组-68" transform="translate(413, 168)">
                    <g id="编组-29">
                        <text id="多主题" font-family="PingFangSC-Regular, PingFang SC" font-size="14" font-weight="normal" fill="#303258">
                            <tspan x="0" y="19">多主题</tspan>
                        </text>
                        <g id="编组-28" transform="translate(50.7542, 0)">
                            <use id="矩形" stroke-opacity="0.5" stroke="#F96F25" mask="url(#mask-2)" stroke-width="2" fill="#FFFFFF" stroke-dasharray="1" xlink:href="#path-1"></use>
                            <text id="收入" font-family="PingFangSC-Regular, PingFang SC" font-size="14" font-weight="normal" fill="#F96F25">
                                <tspan x="16.5415282" y="19">收入</tspan>
                            </text>
                        </g>
                        <g id="编组-28备份-2" transform="translate(183.4518, 0)">
                            <use id="矩形" stroke-opacity="0.5" stroke="#F96F25" mask="url(#mask-4)" stroke-width="2" fill="#FFFFFF" stroke-dasharray="1" xlink:href="#path-3"></use>
                            <text id="回款" font-family="PingFangSC-Regular, PingFang SC" font-size="14" font-weight="normal" fill="#F96F25">
                                <tspan x="16.5415282" y="19">回款</tspan>
                            </text>
                        </g>
                        <g id="编组-28备份" transform="translate(117.103, 0)">
                            <use id="矩形" stroke-opacity="0.5" stroke="#F96F25" mask="url(#mask-6)" stroke-width="2" fill="#FFFFFF" stroke-dasharray="1" xlink:href="#path-5"></use>
                            <text id="利润" font-family="PingFangSC-Regular, PingFang SC" font-size="14" font-weight="normal" fill="#F96F25">
                                <tspan x="16.5415282" y="19">利润</tspan>
                            </text>
                        </g>
                        <g id="编组-28备份-3" transform="translate(249.8007, 0)">
                            <use id="矩形" stroke-opacity="0.5" stroke="#F96F25" mask="url(#mask-8)" stroke-width="2" fill="#FFFFFF" stroke-dasharray="1" xlink:href="#path-7"></use>
                            <text id="存货" font-family="PingFangSC-Regular, PingFang SC" font-size="14" font-weight="normal" fill="#F96F25">
                                <tspan x="16.5415282" y="19">存货</tspan>
                            </text>
                        </g>
                    </g>
                    <g id="编组-30" transform="translate(345, 0)">
                        <text id="多维度" font-family="PingFangSC-Regular, PingFang SC" font-size="14" font-weight="normal" fill="#303258">
                            <tspan x="0" y="19">多维度</tspan>
                        </text>
                        <g id="编组-28备份-4" transform="translate(50.7542, 0)">
                            <use id="矩形" stroke-opacity="0.5" stroke="#F96F25" mask="url(#mask-10)" stroke-width="2" fill="#FFFFFF" stroke-dasharray="1" xlink:href="#path-9"></use>
                            <text id="产业" font-family="PingFangSC-Regular, PingFang SC" font-size="14" font-weight="normal" fill="#F96F25">
                                <tspan x="16.5415282" y="19">产业</tspan>
                            </text>
                        </g>
                        <g id="编组-28备份-5" transform="translate(183.4518, 0)">
                            <use id="矩形" stroke-opacity="0.5" stroke="#F96F25" mask="url(#mask-12)" stroke-width="2" fill="#FFFFFF" stroke-dasharray="1" xlink:href="#path-11"></use>
                            <text id="市场" font-family="PingFangSC-Regular, PingFang SC" font-size="14" font-weight="normal" fill="#F96F25">
                                <tspan x="16.5415282" y="19">市场</tspan>
                            </text>
                        </g>
                        <g id="编组-28备份-6" transform="translate(117.103, 0)">
                            <use id="矩形" stroke-opacity="0.5" stroke="#F96F25" mask="url(#mask-14)" stroke-width="2" fill="#FFFFFF" stroke-dasharray="1" xlink:href="#path-13"></use>
                            <text id="产品" font-family="PingFangSC-Regular, PingFang SC" font-size="14" font-weight="normal" fill="#F96F25">
                                <tspan x="16.5415282" y="19">产品</tspan>
                            </text>
                        </g>
                        <g id="编组-28备份-7" transform="translate(249.8007, 0)">
                            <use id="矩形" stroke-opacity="0.5" stroke="#F96F25" mask="url(#mask-16)" stroke-width="2" fill="#FFFFFF" stroke-dasharray="1" xlink:href="#path-15"></use>
                            <text id="客户" font-family="PingFangSC-Regular, PingFang SC" font-size="14" font-weight="normal" fill="#F96F25">
                                <tspan x="16.5415282" y="19">客户</tspan>
                            </text>
                        </g>
                    </g>
                </g>
                <g id="编组-25备份-3" transform="translate(170, 458)">
                    <polygon id="矩形备份-86" fill="#F5F5F7" transform="translate(182.5, 26.5) scale(-1, 1) translate(-182.5, -26.5)" points="3.08981127e-12 0 365 -2.23960794e-11 365 53 3.08981127e-12 53"></polygon>
                    <g id="编组-57" transform="translate(112, 11)">
                        <text id="数据资产平台" font-family="AlimamaShuHeiTi-Bold, Alimama ShuHeiTi" font-size="16" font-weight="bold" fill="#666773">
                            <tspan x="44.5200273" y="22">数据资产平台</tspan>
                        </text>
                        <g id="编组">
                            <rect id="矩形备份" x="0" y="0" width="32" height="32"></rect>
                            <path d="M25,19.8117021 L25,24.093617 C24.3149912,25.364539 22.5054674,26 19.5714286,26 C16.6373897,26 14.8278659,25.364539 14.1428571,24.093617 L14.1428571,19.8117021 L14.1514506,19.9394794 C14.3111497,21.1926486 16.6766947,22.187234 19.5714286,22.187234 C22.4661624,22.187234 24.8317075,21.1926486 24.9914065,19.9394794 L25,19.8117021 Z M6,15.1276596 C6,16.7725638 9.03733185,18.1060599 12.7843571,18.1063829 L12.7843571,22.8718936 L12.3523555,22.8685277 C8.93946237,22.8075234 6.82201052,22.0144681 6,20.4893617 L6,15.1276596 Z M25,15.0382979 L25,19.3276596 C24.3149912,20.5985816 22.5054674,21.2340426 19.5714286,21.2340426 C16.6373897,21.2340426 14.8278659,20.5985816 14.1428571,19.3276596 L14.1428571,15.0382979 C14.1428571,16.3543807 16.5733114,17.4212766 19.5714286,17.4212766 C22.5695458,17.4212766 25,16.3543807 25,15.0382979 Z M6,9.17021277 C6,10.8153163 9.03806777,12.1489362 12.7857143,12.1489362 C13.0963005,12.1489362 13.4020131,12.1397765 13.7015268,12.122039 C13.2062581,12.5069965 12.8937018,12.9385598 12.8089248,13.3963334 L12.7857143,13.3955782 L12.7843571,16.9137021 L12.3523555,16.9110809 C8.93946237,16.8500766 6.82201052,16.0570213 6,14.5319149 L6,9.17021277 Z M19.5714286,11.7021277 C22.5695458,11.7021277 25,12.7690236 25,14.0851064 C25,15.4011892 22.5695458,16.4680851 19.5714286,16.4680851 C16.5733114,16.4680851 14.1428571,15.4011892 14.1428571,14.0851064 C14.1428571,12.7690236 16.5733114,11.7021277 19.5714286,11.7021277 Z M12.7857143,5 C16.5333608,5 19.5714286,6.33361989 19.5714286,7.9787234 C19.5714286,9.62382691 16.5333608,10.9574468 12.7857143,10.9574468 C9.03806777,10.9574468 6,9.62382691 6,7.9787234 C6,6.33361989 9.03806777,5 12.7857143,5 Z M19.5714286,9.17021277 L19.5713322,10.3987836 C19.3479018,10.4126798 19.1275059,10.4303839 18.9105474,10.4517302 C19.3347996,10.0641966 19.5714286,9.62933509 19.5714286,9.17021277 Z" id="形状" fill="#999BA6"></path>
                        </g>
                    </g>
                </g>
                <g id="编组-25备份-4" transform="translate(542, 458)">
                    <polygon id="矩形备份-86" fill="#F5F5F7" transform="translate(182.2627, 26.5) scale(-1, 1) translate(-182.2627, -26.5)" points="3.08579302e-12 0 364.525324 -2.23960794e-11 364.525324 53 3.08579302e-12 53"></polygon>
                    <g id="编组-59" transform="translate(115, 16)">
                        <text id="应用组装平台" font-family="AlimamaShuHeiTi-Bold, Alimama ShuHeiTi" font-size="16" font-weight="bold" fill="#666773">
                            <tspan x="37" y="17">应用组装平台</tspan>
                        </text>
                        <g id="编组-56备份">
                            <g id="chanpin" fill="#999BA6" fill-rule="nonzero">
                                <path d="M1.07610743,6.28833012 C1.2512877,6.28833012 1.42646798,6.31297136 1.60164825,6.38689511 L8.50875634,9.20400929 C9.33460623,9.49970425 10.0103016,10.4360717 10.0103016,11.3231566 L10.0103016,19.8736696 C9.98527583,20.612907 9.459735,21.1303732 8.75901387,21.1303732 C8.5838336,21.1303732 8.38362757,21.105732 8.2084473,21.0318082 L1.40144223,18.214694 C0.600618114,17.9189991 0,17.0072729 0,16.0955467 L0,7.54503376 C0,6.78115509 0.425437809,6.28833012 1.07610743,6.28833012 Z M18.4609779,7.7242111 C18.5343896,7.72184036 18.6059219,7.74768517 18.6608824,7.79643707 C18.7154922,7.8424843 18.7506974,7.9074748 18.7594465,7.97839096 L18.9954449,9.5284714 C19.2591492,9.60965267 19.5143838,9.71617302 19.757581,9.84654346 L20.9542319,8.92982921 C21.0079759,8.87906403 21.0803751,8.85290606 21.1541365,8.85760324 C21.2309753,8.85851042 21.3049097,8.8871135 21.3623704,8.93816299 C22.3327405,9.8382097 22.8213961,10.3826824 22.8213961,10.5632473 C22.8162211,10.6323241 22.791147,10.6984197 22.7492083,10.753535 C22.6770205,10.8438174 22.5409744,11.0257713 22.3327405,11.2882849 C22.1245066,11.5521875 21.9704135,11.7605317 21.8607436,11.9063726 C22.0011653,12.174086 22.1195561,12.4528 22.2147413,12.7397491 L23.7556722,12.9855952 C23.8233004,12.9968697 23.8845011,13.0324244 23.9278122,13.0856004 C23.9725063,13.1423682 23.9978099,13.2119899 24,13.2842218 L24,15.1718198 C23.9978099,15.2440518 23.9725063,15.3136734 23.9278122,15.3704412 C23.8915997,15.4283363 23.8325947,15.4681984 23.7653898,15.4801691 L22.1966943,15.7246262 C22.1245065,15.9607496 22.0148367,16.2149295 21.8704612,16.4954996 C22.096742,16.8135716 22.3952106,17.2038697 22.7769728,17.6566709 C22.8193382,17.7152316 22.8443565,17.7845497 22.8491606,17.8566813 C22.8500578,17.9301365 22.8238629,18.0013454 22.7755846,18.0566917 C22.6610559,18.2056578 22.4793718,18.411658 22.2235044,18.6741066 L21.9426489,18.9553494 C21.544228,19.3539812 21.2721357,19.5526027 21.1444189,19.5526027 C21.0692123,19.550654 20.9964601,19.5254198 20.936185,19.4803767 L19.775628,18.5733852 C19.5493471,18.6997806 19.2855842,18.8095085 18.9968332,18.899791 C18.9135396,19.6262176 18.8413518,20.1512448 18.7608347,20.4595942 C18.7150233,20.6221026 18.615071,20.7054403 18.4609779,20.7054403 L16.5757668,20.7054403 C16.5021908,20.7054403 16.4397207,20.6873838 16.3758623,20.6318253 C16.3210396,20.5863513 16.2853521,20.5218815 16.27591,20.4512604 L16.0399116,18.899791 C15.8039131,18.827565 15.551256,18.7275598 15.2791637,18.5817189 L14.0825128,19.4803767 C14.0269837,19.5248234 13.9645136,19.5526027 13.8826082,19.5526027 C13.8057694,19.5516955 13.731835,19.5230924 13.6743743,19.4720429 C12.7040042,18.5733852 12.2139604,18.0289125 12.2139604,17.8469586 C12.2191354,17.7778818 12.2442095,17.7117862 12.2861482,17.6566709 C12.3680535,17.548332 12.5138173,17.3663781 12.7123336,17.1121983 C12.8697112,16.9140087 13.0210963,16.7111287 13.1662835,16.5038334 C13.0121904,16.1788165 12.8941912,15.8968574 12.8206152,15.6704568 L11.2796843,15.4343334 C11.2172141,15.4162769 11.1533557,15.3801639 11.1075442,15.3259945 C11.063121,15.2621023 11.0353565,15.19821 11.0353565,15.1259841 L11.0353565,13.2578316 C11.0372506,13.1851207 11.0625703,13.1149673 11.1075442,13.0578212 C11.1443516,13.0001294 11.203882,12.960758 11.2713549,12.9494822 L12.8400504,12.7036361 C12.924251,12.4369587 13.0334822,12.1788507 13.1662835,11.9327628 C12.9400027,11.6160797 12.6401458,11.2257817 12.2597719,10.7715914 C12.2139604,10.7076992 12.1861959,10.6354733 12.1861959,10.57297 C12.1843876,10.5018815 12.2104821,10.432594 12.2597719,10.3812934 C12.413865,10.182672 12.6942867,9.87432267 13.0940958,9.47430192 C13.5022342,9.07567011 13.764609,8.87565974 13.8923258,8.87565974 C13.9675324,8.87760843 14.0402846,8.90284255 14.1005597,8.94788571 L15.2611167,9.85626618 C15.5137739,9.71875904 15.7678192,9.62014282 16.0399116,9.53819411 C16.1218169,8.8131565 16.1940046,8.2867403 16.27591,7.96866824 C16.3217215,7.80615981 16.4216737,7.7242111 16.5757668,7.7242111 L18.4609779,7.7242111 Z M17.5194019,11.3272526 C16.745258,11.3157984 16.001012,11.6236522 15.4640973,12.1774194 C14.8942174,12.7308006 14.6092774,13.4171171 14.6092774,14.2147281 C14.5973336,14.9830269 14.9068578,15.7218414 15.4640973,16.2551283 C16.0339772,16.8193299 16.7144076,17.1022036 17.5178449,17.1022036 C18.2915229,17.114464 19.0356997,16.8077583 19.5731495,16.2551283 C20.1414724,15.689381 20.4264124,15.0123391 20.4264124,14.2147281 C20.4264124,13.4171171 20.1414724,12.741621 19.5731495,12.1774194 C19.0032696,11.6101263 18.3212822,11.3272526 17.5194019,11.3272526 Z M10.4107136,0 C10.9362545,0 11.4367696,0.0806572053 11.8121559,0.241971616 L19.6201911,3.33383122 C20.2708607,3.57580283 20.345938,3.95220312 20.345938,4.16728904 C20.345938,4.35548918 20.2458349,4.73188947 19.6201911,5.00074683 L11.8371816,8.09260643 C11.4617953,8.2270351 10.9612802,8.30769231 10.4357394,8.30769231 C9.91019857,8.30769231 9.40968346,8.2270351 9.03429719,8.06572069 L1.22626195,5.00074683 C0.575592361,4.75877521 0.50051507,4.38237492 0.50051507,4.16728904 C0.50051507,3.97908889 0.600618084,3.6026886 1.22626195,3.33383122 L9.00927144,0.241971616 C9.38465774,0.0806572053 9.88517284,0 10.4107136,0 Z" id="形状结合"></path>
                            </g>
                            <g id="编组-118" transform="translate(11.0354, 6.801)"></g>
                        </g>
                    </g>
                </g>
                <g id="编组-71" transform="translate(947.4747, 458)">
                    <polygon id="矩形备份-86" fill="#F5F5F7" transform="translate(182.2627, 26.5) scale(-1, 1) translate(-182.2627, -26.5)" points="3.08579302e-12 0 364.525324 -2.23960794e-11 364.525324 53 3.08579302e-12 53"></polygon>
                    <g id="编组-32" transform="translate(117, 18)">
                        <text id="数据服务平台" font-family="AlimamaShuHeiTi-Bold, Alimama ShuHeiTi" font-size="16" font-weight="bold" fill="#666773">
                            <tspan x="33.9727626" y="15">数据服务平台</tspan>
                        </text>
                        <g id="编组-53" fill="#999BA6">
                            <path d="M21,0 C22.1045695,-2.02906125e-16 23,0.8954305 23,2 L23,13 C23,14.1045695 22.1045695,15 21,15 L2,15 C0.8954305,15 1.3527075e-16,14.1045695 0,13 L0,2 C-1.3527075e-16,0.8954305 0.8954305,-1.91384796e-17 2,0 L21,0 Z M13.4096091,2.037765 L8.12127902,11.3339656 L9.85967801,12.3228887 L15.1480081,3.02668812 L13.4096091,2.037765 Z M6.41421356,3.17157288 L2.17157288,7.41421356 L2.25757288,7.49957288 L2.17157288,7.58578644 L6.41421356,11.8284271 L7.82842712,10.4142136 L4.91357288,7.49957288 L7.82842712,4.58578644 L6.41421356,3.17157288 Z M16.5857864,3.17157288 L15.1715729,4.58578644 L18.0855729,7.49957288 L15.1715729,10.4142136 L16.5857864,11.8284271 L20.8284271,7.58578644 L20.7415729,7.49957288 L20.8284271,7.41421356 L16.5857864,3.17157288 Z M3,17 L20,17 C20.5522847,17 21,17.4477153 21,18 C21,18.5522847 20.5522847,19 20,19 L3,19 C2.44771525,19 2,18.5522847 2,18 C2,17.4477153 2.44771525,17 3,17 Z" id="形状结合"></path>
                        </g>
                    </g>
                </g>
                <g id="编组-39" transform="translate(1389, 48)">
                    <g id="编组-42">
                        <rect id="矩形备份-61" fill="#999BA6" opacity="0.100000001" x="0" y="0" width="40" height="40" rx="20"></rect>
                        <path d="M15.1094172,22.8468223 L15.0920695,26.8407446 C15.0930007,26.8925002 15.0651486,26.940488 15.0197873,26.9652832 C14.9750589,26.9911514 14.9199513,26.9911514 14.8752229,26.9652832 L11.4056773,24.9581852 C11.361182,24.9311084 11.3338377,24.8828999 11.3333633,24.8307504 L11.3333633,20.8397243 C11.3322492,20.7842593 11.3622255,20.7328281 11.4110073,20.706563 C11.4597891,20.6802978 11.5191494,20.6836282 11.5646981,20.7151858 L15.0342437,22.7222838 C15.0802742,22.748213 15.1089478,22.7968207 15.1094172,22.8497186 L15.1094172,22.8468223 Z M15.121005,17.6509582 L15.121005,21.6448805 C15.1219136,21.6966361 15.0940615,21.7446239 15.0487002,21.7694191 C15.0029229,21.7952215 14.9470217,21.7952215 14.9012445,21.7694191 L11.4201337,19.7623211 C11.3743117,19.7365575 11.3464888,19.6875052 11.3478515,19.6348863 L11.3478515,15.6438602 C11.3483128,15.5916207 11.3762869,15.5435108 11.4214208,15.5173359 C11.4665546,15.4911609 11.5221341,15.4908147 11.5675894,15.5164254 L15.037135,17.5235234 C15.0834418,17.5487956 15.1114494,17.5981736 15.1094172,17.6509582 L15.121005,17.6509582 Z M19.6198491,25.4563394 L19.6198491,29.4502617 C19.6207577,29.5020172 19.5929056,29.5500051 19.5475443,29.5748002 C19.5017671,29.6006026 19.4458658,29.6006026 19.4000886,29.5748002 L15.930543,27.5677022 C15.8851835,27.5414758 15.8575318,27.4927254 15.8582467,27.4402674 L15.8582467,23.4492414 C15.8587221,23.3970018 15.8866962,23.348892 15.9318301,23.322717 C15.9769639,23.2965421 16.0325434,23.2961959 16.0779987,23.3218066 L19.5475443,25.3289046 C19.5929038,25.355131 19.6205555,25.4038814 19.6198491,25.4563394 L19.6198491,25.4563394 Z M24.905101,22.8468223 L24.905101,26.8407446 C24.9065602,26.8924653 24.9349296,26.9396506 24.9798855,26.9651298 C25.0248415,26.9906091 25.0798293,26.9906672 25.1248389,26.9652832 L28.5943845,24.9581852 C28.6388797,24.9311084 28.666224,24.8828999 28.6666667,24.8307504 L28.6666667,20.8397243 C28.666224,20.7875748 28.6388797,20.7393663 28.5943845,20.7122895 C28.5486072,20.6864871 28.492706,20.6864871 28.4469288,20.7122895 L24.9773832,22.7193875 C24.9313527,22.7453168 24.9026791,22.7939245 24.9022097,22.8468223 L24.905101,22.8468223 Z M24.8935358,17.6509582 L24.8935358,21.6448805 C24.8938455,21.696461 24.9215217,21.7439828 24.9661936,21.7696385 C25.0108654,21.7952943 25.0657886,21.7952107 25.1103824,21.7694191 L28.579928,19.7623211 C28.62575,19.7365575 28.6535729,19.6875052 28.6522102,19.6348863 L28.6522102,15.6438602 C28.6517676,15.5917107 28.6244233,15.5435021 28.579928,15.5164254 C28.5341508,15.490623 28.4782496,15.490623 28.4324723,15.5164254 L24.965818,17.5293159 C24.9195112,17.5545881 24.8915036,17.603966 24.8935358,17.6567507 L24.8935358,17.6509582 Z M20.3946776,25.4563394 L20.3946776,29.4502617 C20.3950014,29.5018422 20.4226776,29.5493639 20.4673494,29.5750197 C20.5120213,29.6006755 20.5669445,29.6005919 20.6115383,29.5748002 L24.0810839,27.5677022 C24.1264434,27.5414758 24.154095,27.4927254 24.1533801,27.4402674 L24.1533801,23.4492414 C24.1535463,23.3976629 24.1273639,23.3495795 24.0839752,23.3218066 C24.0381979,23.2960042 23.9822967,23.2960042 23.9365195,23.3218066 L20.4669739,25.3289046 C20.4216144,25.355131 20.3939627,25.4038814 20.3946776,25.4563394 L20.3946776,25.4563394 Z M20.0997803,14.2855211 L23.5461956,12.2784231 C23.5915569,12.253628 23.6194091,12.2056402 23.6185005,12.1538846 C23.6192068,12.1014266 23.5915551,12.0526762 23.5461956,12.0264498 L20.07665,10.0193518 C20.0308728,9.9935494 19.9749715,9.9935494 19.9291943,10.0193518 L16.482779,12.0264498 C16.4376252,12.052959 16.4098827,12.1014575 16.4098827,12.1538846 C16.4098827,12.2063116 16.4376252,12.2548102 16.482779,12.2813194 L19.9523246,14.2884174 C19.997053,14.3142856 20.0521606,14.3142856 20.096889,14.2884174 L20.0997803,14.2855211 Z M15.6153926,16.8950382 L19.0618079,14.8908364 C19.1069617,14.8643273 19.1347042,14.8158287 19.1347042,14.7634016 C19.1347042,14.7109746 19.1069617,14.662476 19.0618079,14.6359668 L15.5922623,12.6288688 C15.5464851,12.6030664 15.4905838,12.6030664 15.4448066,12.6288688 L11.9983913,14.6330706 C11.9538961,14.6601473 11.9265518,14.7083558 11.9261091,14.7605054 C11.926419,14.8119298 11.9539313,14.8593322 11.9983913,14.8850439 L15.4679369,16.8921419 C15.5116911,16.9214266 15.5687471,16.9214266 15.6125013,16.8921419 L15.6153926,16.8950382 Z M24.6130809,16.8950382 L28.0594962,14.8908364 C28.1046499,14.8643273 28.1323925,14.8158287 28.1323925,14.7634016 C28.1323925,14.7109746 28.1046499,14.662476 28.0594962,14.6359668 L24.5899506,12.6288688 C24.5452222,12.6030006 24.4901146,12.6030006 24.4453862,12.6288688 L20.9960796,14.6330706 C20.9507201,14.659297 20.9230684,14.7080474 20.9237747,14.7605054 C20.9228662,14.812261 20.9507183,14.8602488 20.9960796,14.8850439 L24.4656252,16.8921419 C24.5105036,16.9211777 24.5682024,16.9211777 24.6130809,16.8921419 L24.6130809,16.8950382 Z M24.1678225,17.6509582 L24.1678225,21.6448805 C24.1663633,21.6966012 24.1379939,21.7437865 24.093038,21.7692657 C24.048082,21.794745 23.9930942,21.7948031 23.9480846,21.7694191 L20.478539,19.7623211 C20.4336213,19.7356576 20.4061288,19.6871878 20.4062564,19.6348863 L20.4062564,15.6438602 C20.4067181,15.5916207 20.4346923,15.5435108 20.4798261,15.5173359 C20.52496,15.4911609 20.5805394,15.4908147 20.6259947,15.5164254 L24.0955403,17.5235234 C24.1400356,17.5506002 24.1673799,17.5988087 24.1678225,17.6509582 L24.1678225,17.6509582 Z M15.8466932,17.6509582 L15.8466932,21.6448805 C15.8463894,21.69737 15.8744623,21.745916 15.9200691,21.7717641 C15.9656758,21.7976122 16.0216753,21.796715 16.0664335,21.7694191 L19.5359791,19.7623211 C19.5824538,19.736849 19.6112972,19.6879533 19.6111532,19.6348863 L19.6111532,15.6438602 C19.6106832,15.5909623 19.5820096,15.5423547 19.5359791,15.5164254 C19.4912508,15.4905572 19.4361431,15.4905572 19.3914147,15.5164254 L15.9189779,17.5293159 C15.8744826,17.5563926 15.8471383,17.6046012 15.8466932,17.6567507 L15.8466932,17.6509582 Z M20.0997803,24.6453907 L23.5461956,22.6382927 C23.5915551,22.6120662 23.6192068,22.5633158 23.6185005,22.5108579 C23.6194091,22.4591023 23.5915569,22.4111145 23.5461956,22.3863193 L20.07665,20.3792213 C20.0317715,20.3501855 19.9740727,20.3501855 19.9291943,20.3792213 L16.482779,22.3834231 C16.4376252,22.4099322 16.4098827,22.4584308 16.4098827,22.5108579 C16.4098827,22.5632849 16.4376252,22.6117835 16.482779,22.6382927 L19.9523246,24.6453907 C19.997053,24.6712589 20.0521606,24.6712589 20.096889,24.6453907 L20.0997803,24.6453907 Z" id="形状" fill="#666773" fill-rule="nonzero"></path>
                    </g>
                    <text id="体" font-family="PingFangSC-Regular, PingFang SC" font-size="14" font-weight="normal" fill="#303258">
                        <tspan x="49" y="25">体</tspan>
                    </text>
                </g>
                <g id="编组-26" transform="translate(1389, 235)">
                    <g id="编组-44">
                        <rect id="矩形备份-66" fill="#999BA6" opacity="0.100000001" x="0" y="0" width="40" height="40" rx="20"></rect>
                        <path d="M16.1482984,12.1926382 L16.1482984,14.9006382 L24.5042984,24.8586382 L27.4816317,24.8593049 L27.4816317,28.8593049 L23.4816317,28.8593049 L23.4812984,25.7136382 L15.4912984,16.1926382 L12.1482984,16.1926382 L12.1482984,12.1926382 L16.1482984,12.1926382 Z" id="形状结合" fill="#FFFFFF"></path>
                        <path d="M16.1482984,12.1926382 L16.1482984,14.9006382 L24.5042984,24.8586382 L27.4816317,24.8593049 L27.4816317,28.8593049 L23.4816317,28.8593049 L23.4812984,25.7136382 L15.4912984,16.1926382 L12.1482984,16.1926382 L12.1482984,12.1926382 L16.1482984,12.1926382 Z" id="形状结合" fill="#666773"></path>
                    </g>
                    <text id="线" font-family="PingFangSC-Regular, PingFang SC" font-size="14" font-weight="normal" fill="#303258">
                        <tspan x="49" y="25">线</tspan>
                    </text>
                </g>
                <g id="编组-38" transform="translate(1389, 142)">
                    <g id="编组-43">
                        <rect id="矩形备份-65" fill="#999BA6" opacity="0.100000001" x="0" y="0" width="40" height="40" rx="20"></rect>
                        <g id="编组" transform="translate(8, 8)">
                            <rect id="矩形" x="0" y="0" width="24" height="24"></rect>
                            <path d="M8.85666667,9.90452381 L8.85714286,19.3333333 L4.66666667,19.3333333 L4.66666667,9.9047619 L8.85666667,9.90452381 Z M19.3333333,19.3333333 L10.952381,19.3333333 L10.9516667,9.90452381 L19.3333333,9.9047619 L19.3333333,19.3333333 Z M4.66666667,4.66666667 L19.3333333,4.66666667 L19.3333333,7.80952381 L4.66666667,7.80952381 L4.66666667,4.66666667 Z" id="形状结合" fill="#666773"></path>
                        </g>
                    </g>
                    <text id="面" font-family="PingFangSC-Regular, PingFang SC" font-size="14" font-weight="normal" fill="#303258">
                        <tspan x="49" y="25">面</tspan>
                    </text>
                </g>
                <g id="编组-22" transform="translate(1389, 329)">
                    <g id="编组-45">
                        <rect id="矩形备份-70" fill="#999BA6" opacity="0.100000001" x="0" y="0" width="40" height="40" rx="20"></rect>
                        <path d="M18.1482984,18.1017795 L22.1482984,18.1017795 L22.1482984,22.1017795 L18.1482984,22.1017795 Z M12.8149651,12.7684462 L16.8149651,12.7684462 L16.8149651,16.7684462 L12.8149651,16.7684462 Z M12.8149651,23.4351128 L16.8149651,23.4351128 L16.8149651,27.4351128 L12.8149651,27.4351128 Z M23.4816317,12.7684462 L27.4816317,12.7684462 L27.4816317,16.7684462 L23.4816317,16.7684462 Z M23.4816317,23.4351128 L27.4816317,23.4351128 L27.4816317,27.4351128 L23.4816317,27.4351128 Z" id="形状结合" fill="#666773"></path>
                    </g>
                    <text id="点" font-family="PingFangSC-Regular, PingFang SC" font-size="14" font-weight="normal" fill="#303258">
                        <tspan x="49" y="25">点</tspan>
                    </text>
                </g>
                <g id="编组-70" transform="translate(1332, 110)">
                    <path id="路径-5" d="M10,56 L10,56.5 L14,56.5 L9.5,65.5 L5,56.5 L9,56.5 L9,56 L10,56 Z M10,54 L10,55 L9,55 L9,54 L10,54 Z M10,52 L10,53 L9,53 L9,52 L10,52 Z M10,50 L10,51 L9,51 L9,50 L10,50 Z M10,48 L10,49 L9,49 L9,48 L10,48 Z M10,46 L10,47 L9,47 L9,46 L10,46 Z M10,44 L10,45 L9,45 L9,44 L10,44 Z M10,42 L10,43 L9,43 L9,42 L10,42 Z M10,40 L10,41 L9,41 L9,40 L10,40 Z M10,38 L10,39 L9,39 L9,38 L10,38 Z M10,36 L10,37 L9,37 L9,36 L10,36 Z M10,34 L10,35 L9,35 L9,34 L10,34 Z M10,32 L10,33 L9,33 L9,32 L10,32 Z M10,30 L10,31 L9,31 L9,30 L10,30 Z M10,28 L10,29 L9,29 L9,28 L10,28 Z M10,26 L10,27 L9,27 L9,26 L10,26 Z M10,24 L10,25 L9,25 L9,24 L10,24 Z M10,22 L10,23 L9,23 L9,22 L10,22 Z M10,20 L10,21 L9,21 L9,20 L10,20 Z M10,18 L10,19 L9,19 L9,18 L10,18 Z M10,16 L10,17 L9,17 L9,16 L10,16 Z M10,14 L10,15 L9,15 L9,14 L10,14 Z M10,12 L10,13 L9,13 L9,12 L10,12 Z M10,10 L10,11 L9,11 L9,10 L10,10 Z M10,8 L10,9 L9,9 L9,8 L10,8 Z M10,6 L10,7 L9,7 L9,6 L10,6 Z M10,4 L10,5 L9,5 L9,4 L10,4 Z M10,2 L10,3 L9,3 L9,2 L10,2 Z M10,0 L10,1 L9,1 L9,0 L10,0 Z" transform="translate(9.5, 32.5) scale(1, -1) translate(-9.5, -32.5)" fill="url(#linearGradient-17)" fill-rule="nonzero" opacity="0.600000024"></path>
                    <path id="路径-5备份" d="M10.234375,273.826527 L10.234,274.278 L14.234375,274.278908 L9.734375,283.278908 L5.234375,274.278908 L9.234,274.278 L9.234375,273.826527 L10.234375,273.826527 Z M10.234375,271.826527 L10.234375,272.826527 L9.234375,272.826527 L9.234375,271.826527 L10.234375,271.826527 Z M10.234375,269.826527 L10.234375,270.826527 L9.234375,270.826527 L9.234375,269.826527 L10.234375,269.826527 Z M10.234375,267.826527 L10.234375,268.826527 L9.234375,268.826527 L9.234375,267.826527 L10.234375,267.826527 Z M10.234375,265.826527 L10.234375,266.826527 L9.234375,266.826527 L9.234375,265.826527 L10.234375,265.826527 Z M10.234375,263.826527 L10.234375,264.826527 L9.234375,264.826527 L9.234375,263.826527 L10.234375,263.826527 Z M10.234375,261.826527 L10.234375,262.826527 L9.234375,262.826527 L9.234375,261.826527 L10.234375,261.826527 Z M10.234375,259.826527 L10.234375,260.826527 L9.234375,260.826527 L9.234375,259.826527 L10.234375,259.826527 Z M10.234375,257.826527 L10.234375,258.826527 L9.234375,258.826527 L9.234375,257.826527 L10.234375,257.826527 Z M10.234375,255.826527 L10.234375,256.826527 L9.234375,256.826527 L9.234375,255.826527 L10.234375,255.826527 Z M10.234375,253.826527 L10.234375,254.826527 L9.234375,254.826527 L9.234375,253.826527 L10.234375,253.826527 Z M10.234375,251.826527 L10.234375,252.826527 L9.234375,252.826527 L9.234375,251.826527 L10.234375,251.826527 Z M10.234375,249.826527 L10.234375,250.826527 L9.234375,250.826527 L9.234375,249.826527 L10.234375,249.826527 Z M10.234375,247.826527 L10.234375,248.826527 L9.234375,248.826527 L9.234375,247.826527 L10.234375,247.826527 Z M10.234375,245.826527 L10.234375,246.826527 L9.234375,246.826527 L9.234375,245.826527 L10.234375,245.826527 Z M10.234375,243.826527 L10.234375,244.826527 L9.234375,244.826527 L9.234375,243.826527 L10.234375,243.826527 Z M10.234375,241.826527 L10.234375,242.826527 L9.234375,242.826527 L9.234375,241.826527 L10.234375,241.826527 Z M10.234375,239.826527 L10.234375,240.826527 L9.234375,240.826527 L9.234375,239.826527 L10.234375,239.826527 Z M10.234375,237.826527 L10.234375,238.826527 L9.234375,238.826527 L9.234375,237.826527 L10.234375,237.826527 Z M10.234375,235.826527 L10.234375,236.826527 L9.234375,236.826527 L9.234375,235.826527 L10.234375,235.826527 Z M10.234375,233.826527 L10.234375,234.826527 L9.234375,234.826527 L9.234375,233.826527 L10.234375,233.826527 Z M10.234375,231.826527 L10.234375,232.826527 L9.234375,232.826527 L9.234375,231.826527 L10.234375,231.826527 Z M10.234375,229.826527 L10.234375,230.826527 L9.234375,230.826527 L9.234375,229.826527 L10.234375,229.826527 Z M10.234375,227.826527 L10.234375,228.826527 L9.234375,228.826527 L9.234375,227.826527 L10.234375,227.826527 Z M10.234375,225.826527 L10.234375,226.826527 L9.234375,226.826527 L9.234375,225.826527 L10.234375,225.826527 Z M10.234375,223.826527 L10.234375,224.826527 L9.234375,224.826527 L9.234375,223.826527 L10.234375,223.826527 Z M10.234375,221.826527 L10.234375,222.826527 L9.234375,222.826527 L9.234375,221.826527 L10.234375,221.826527 Z M10.234375,219.826527 L10.234375,220.826527 L9.234375,220.826527 L9.234375,219.826527 L10.234375,219.826527 Z M10.234375,217.826527 L10.234375,218.826527 L9.234375,218.826527 L9.234375,217.826527 L10.234375,217.826527 Z" fill="url(#linearGradient-18)" fill-rule="nonzero" opacity="0.600000024"></path>
                    <text id="上下贯通-左右互联" font-family="PingFangSC-Regular, PingFang SC" font-size="12" font-weight="normal" line-spacing="15" fill="#666773">
                        <tspan x="2.396" y="87">上</tspan>
                        <tspan x="2.396" y="102">下</tspan>
                        <tspan x="2.396" y="117">贯</tspan>
                        <tspan x="2.396" y="132">通</tspan>
                        <tspan x="9.5" y="147"></tspan>
                        <tspan x="2.396" y="162">左</tspan>
                        <tspan x="2.396" y="177">右</tspan>
                        <tspan x="2.396" y="192">互</tspan>
                        <tspan x="2.396" y="207">联</tspan>
                    </text>
                </g>
            </g>
        </g>
    </g>
</svg>