<?xml version="1.0" encoding="UTF-8"?>
<svg width="1480px" height="922px" viewBox="0 0 1480 922" version="1.1" xmlns="http://www.w3.org/2000/svg" xmlns:xlink="http://www.w3.org/1999/xlink">
    <title>eimos（pc）</title>
    <defs>
        <linearGradient x1="43.815924%" y1="0%" x2="71.0678295%" y2="100%" id="linearGradient-1">
            <stop stop-color="#FDA84C" offset="0%"></stop>
            <stop stop-color="#F96F25" offset="100%"></stop>
        </linearGradient>
        <linearGradient x1="100%" y1="78.2878787%" x2="-5.68121938e-15%" y2="78.2878787%" id="linearGradient-2">
            <stop stop-color="#C1CAD9" offset="0%"></stop>
            <stop stop-color="#E2E5EB" offset="57.2756762%"></stop>
            <stop stop-color="#FFFFFF" stop-opacity="0" offset="92.3836117%"></stop>
            <stop stop-color="#EFFAFF" stop-opacity="0" offset="100%"></stop>
        </linearGradient>
        <linearGradient x1="122.942911%" y1="19.7717535%" x2="3.39924364e-13%" y2="19.7717535%" id="linearGradient-3">
            <stop stop-color="#1252ED" offset="0%"></stop>
            <stop stop-color="#5289FF" offset="11.7888943%"></stop>
            <stop stop-color="#8AB5FF" offset="32.888673%"></stop>
            <stop stop-color="#AED1FF" offset="70.4557203%"></stop>
            <stop stop-color="#EFFAFF" stop-opacity="0" offset="100%"></stop>
        </linearGradient>
        <linearGradient x1="122.942911%" y1="19.7717535%" x2="3.39924364e-13%" y2="19.7717535%" id="linearGradient-4">
            <stop stop-color="#1252ED" offset="0%"></stop>
            <stop stop-color="#5289FF" offset="11.7888943%"></stop>
            <stop stop-color="#8AB5FF" offset="32.888673%"></stop>
            <stop stop-color="#AED1FF" offset="70.4557203%"></stop>
            <stop stop-color="#EFFAFF" stop-opacity="0" offset="100%"></stop>
        </linearGradient>
        <linearGradient x1="50%" y1="4.25330813%" x2="73.7941576%" y2="74.5790997%" id="linearGradient-5">
            <stop stop-color="#AAB4C5" offset="0%"></stop>
            <stop stop-color="#E8E8E8" offset="100%"></stop>
        </linearGradient>
        <linearGradient x1="50%" y1="0%" x2="73.7941576%" y2="76.8643466%" id="linearGradient-6">
            <stop stop-color="#AAB4C5" offset="0%"></stop>
            <stop stop-color="#E8E8E8" offset="100%"></stop>
        </linearGradient>
        <linearGradient x1="39.6694215%" y1="50%" x2="60.3305785%" y2="100%" id="linearGradient-7">
            <stop stop-color="#AAB4C5" offset="0%"></stop>
            <stop stop-color="#E8E8E8" offset="100%"></stop>
        </linearGradient>
    </defs>
    <g id="240122" stroke="none" stroke-width="1" fill="none" fill-rule="evenodd">
        <g id="切图" transform="translate(-250, -2809)">
            <g id="eimos（pc）" transform="translate(250, 2809)">
                <rect id="蒙版备份" x="0" y="0" width="1480" height="922"></rect>
                <g id="编组-15" transform="translate(0, 38)">
                    <polygon id="矩形备份-78" fill="#FFFFFF" transform="translate(740, 391) scale(-1, 1) translate(-740, -391)" points="1.25285498e-11 197 1480 197 1480 585 1.25285498e-11 585"></polygon>
                    <g id="编组-99" transform="translate(0, 784)">
                        <path d="M1479.5,0.5 L1479.5,99.5 L0.5,99.5 L0.5,0.5 L1479.5,0.5 Z" id="矩形备份-82" stroke="#E3E3E3" transform="translate(740, 50) scale(-1, 1) translate(-740, -50)"></path>
                        <text id="·-集成业务架构、数据架构和应用架构，打" font-family="PingFangSC-Regular, PingFang SC" font-size="14" font-weight="normal" line-spacing="32">
                            <tspan x="46" y="31" fill="#000323">· 集成业务架构、数据架构和应用架构，</tspan>
                            <tspan x="295.662" y="31" font-family="PingFangSC-Medium, PingFang SC" font-weight="400" fill="#F96F25">打通业务、数据及应用</tspan>
                        </text>
                        <text id="·-数据资产管理平台统一数据标准，沉淀数" font-family="PingFangSC-Regular, PingFang SC" font-size="14" font-weight="normal" line-spacing="32">
                            <tspan x="776" y="31" fill="#000323">· 数据资产管理平台统一数据标准，</tspan>
                            <tspan x="997.662" y="31" font-family="PingFangSC-Medium, PingFang SC" font-weight="400" fill="#F96F25">沉淀数据资产</tspan>
                        </text>
                        <text id="·-应用组装平台实现业务应用灵活组装，I" font-family="PingFangSC-Regular, PingFang SC" font-size="14" font-weight="normal" line-spacing="32">
                            <tspan x="46" y="67" fill="#000323">· 应用组装平台实现业务应用灵活组装，</tspan>
                            <tspan x="295.662" y="67" font-family="PingFangSC-Medium, PingFang SC" font-weight="400" fill="#F96F25">IT快速响应业务变化</tspan>
                        </text>
                        <text id="·-内置科学管理模型及分析模型，支撑持续" font-family="PingFangSC-Regular, PingFang SC" font-size="14" font-weight="normal" line-spacing="32">
                            <tspan x="776" y="67" fill="#000323">· 内置科学管理模型及分析模型，</tspan>
                            <tspan x="983.662" y="67" font-family="PingFangSC-Medium, PingFang SC" font-weight="400" fill="#F96F25">支撑持续数字化变革</tspan>
                        </text>
                    </g>
                    <polygon id="矩形备份-84" fill="#F5F5F7" transform="translate(726.5, 320) scale(-1, 1) translate(-726.5, -320)" points="170 273 1283 273 1283 367 170 367"></polygon>
                    <text id="应用组装平台" opacity="0.900000036" font-family="AlimamaShuHeiTi-Bold, Alimama ShuHeiTi" font-size="22" font-weight="bold" fill="#0F0F19">
                        <tspan x="660" y="312">应用组装平台</tspan>
                    </text>
                    <g id="编组-60" transform="translate(631, 330)" fill="#303258" font-family="PingFangSC-Regular, PingFang SC" font-size="16" font-weight="normal">
                        <text id="业务组件">
                            <tspan x="0" y="17">业务组件</tspan>
                        </text>
                    </g>
                    <g id="编组-96" transform="translate(768.5, 330)" fill="#303258" font-family="PingFangSC-Regular, PingFang SC" font-size="16" font-weight="normal">
                        <text id="BI组件">
                            <tspan x="0.188" y="17">BI组件</tspan>
                        </text>
                    </g>
                    <g id="编组-27备份-14" transform="translate(170, 379)">
                        <polygon id="矩形备份-84" fill="#F5F5F7" transform="translate(556.5, 95.5) scale(-1, 1) translate(-556.5, -95.5)" points="9.42180805e-12 0 1113 -8.07103995e-11 1113 191 9.42180805e-12 191"></polygon>
                        <text id="数据资产平台" opacity="0.900000036" font-family="AlimamaShuHeiTi-Bold, Alimama ShuHeiTi" font-size="22" font-weight="bold" fill="#0F0F19">
                            <tspan x="491" y="42">数据资产平台</tspan>
                        </text>
                    </g>
                    <g id="编组-97" transform="translate(0, 654)">
                        <g id="编组-27备份-17">
                            <polygon id="矩形备份-84" fill="#FFFFFF" transform="translate(364.5, 53) scale(-1, 1) translate(-364.5, -53)" points="6.1711573e-12 0 729 -4.47921589e-11 729 106 6.1711573e-12 106"></polygon>
                            <text id="业务系统" opacity="0.900000036" font-family="AlimamaShuHeiTi-Bold, Alimama ShuHeiTi" font-size="22" font-weight="bold" fill="#0F0F19">
                                <tspan x="316.236842" y="35.7479675">业务系统</tspan>
                            </text>
                        </g>
                        <g id="编组-27备份-19" transform="translate(32, 54)">
                            <polygon id="矩形备份-84" fill="#F5F5F7" transform="translate(103, 19) scale(-1, 1) translate(-103, -19)" points="1.74383869e-12 0 206 -1.60575664e-11 206 38 1.74383869e-12 38"></polygon>
                            <text id="BPM" font-family="PingFangSC-Regular, PingFang SC" font-size="16" font-weight="normal" fill="#303258">
                                <tspan x="84.8583212" y="25.5">BPM</tspan>
                            </text>
                        </g>
                        <g id="编组-27备份-20" transform="translate(264, 54)">
                            <polygon id="矩形备份-84" fill="#F5F5F7" transform="translate(103, 19) scale(-1, 1) translate(-103, -19)" points="1.74383869e-12 0 206 -1.60575664e-11 206 38 1.74383869e-12 38"></polygon>
                            <text id="ERP" font-family="PingFangSC-Regular, PingFang SC" font-size="16" font-weight="normal" fill="#303258">
                                <tspan x="86.8263212" y="25.5">ERP</tspan>
                            </text>
                        </g>
                        <g id="编组-27备份-21" transform="translate(498, 54)">
                            <polygon id="矩形备份-84" fill="#F5F5F7" transform="translate(103, 19) scale(-1, 1) translate(-103, -19)" points="1.74383869e-12 0 206 -1.60575664e-11 206 38 1.74383869e-12 38"></polygon>
                            <text id="…" font-family="PingFangSC-Regular, PingFang SC" font-size="18" font-weight="normal" fill="#303258">
                                <tspan x="93.4663212" y="22.4189189">…</tspan>
                            </text>
                        </g>
                    </g>
                    <g id="编组-98" transform="translate(751, 654)">
                        <g id="编组-27备份-18">
                            <polygon id="矩形备份-84" fill="#FFFFFF" transform="translate(364.5, 53) scale(-1, 1) translate(-364.5, -53)" points="6.1711573e-12 0 729 -4.47921589e-11 729 106 6.1711573e-12 106"></polygon>
                            <text id="大数据平台" opacity="0.900000036" font-family="AlimamaShuHeiTi-Bold, Alimama ShuHeiTi" font-size="22" font-weight="bold" fill="#0F0F19">
                                <tspan x="305.236842" y="35.7479675">大数据平台</tspan>
                            </text>
                        </g>
                        <g id="编组-27备份-22" transform="translate(262, 54)">
                            <polygon id="矩形备份-84" fill="#F5F5F7" transform="translate(103, 19) scale(-1, 1) translate(-103, -19)" points="1.74383869e-12 0 206 -1.60575664e-11 206 38 1.74383869e-12 38"></polygon>
                            <g id="编组-78" transform="translate(58.7047, 0)">
                                <text id="数据" font-family="PingFangSC-Regular, PingFang SC" font-size="16" font-weight="normal" fill="#303258">
                                    <tspan x="50.1761658" y="25.5">数据</tspan>
                                </text>
                                <g id="编组">
                                    <rect id="矩形备份" x="0" y="0" width="38" height="38"></rect>
                                    <path d="M30,23.6329787 L30,28.7304965 C29.206832,30.2434988 27.1115939,31 23.7142857,31 C20.3169776,31 18.2217395,30.2434988 17.4285714,28.7304965 L17.4285714,23.6329787 L17.4385218,23.7850945 C17.6234364,25.2769626 20.3624886,26.4609929 23.7142857,26.4609929 C27.0660828,26.4609929 29.805135,25.2769626 29.9900496,23.7850945 L30,23.6329787 Z M8,18.0567376 C8,20.0149569 11.5169106,21.6024523 15.8555714,21.6028368 L15.8555714,27.2760638 L15.3553591,27.2720567 C11.403588,27.1994326 8.95180166,26.2553191 8,24.4397163 L8,18.0567376 Z M30,17.9503546 L30,23.0567376 C29.206832,24.56974 27.1115939,25.3262411 23.7142857,25.3262411 C20.3169776,25.3262411 18.2217395,24.56974 17.4285714,23.0567376 L17.4285714,17.9503546 C17.4285714,19.5171199 20.2427816,20.787234 23.7142857,20.787234 C27.1857899,20.787234 30,19.5171199 30,17.9503546 Z M8,10.964539 C8,12.9229956 11.5177627,14.5106383 15.8571429,14.5106383 C16.216769,14.5106383 16.570752,14.4997339 16.9175573,14.4786179 C16.3440883,14.9369006 15.982181,15.4506664 15.8840182,15.995635 L15.8571429,15.994736 L15.8555714,20.1829787 L15.3553591,20.1798582 C11.403588,20.107234 8.95180166,19.1631206 8,17.3475177 L8,10.964539 Z M23.7142857,13.9787234 C27.1857899,13.9787234 30,15.2488376 30,16.8156028 C30,18.3823681 27.1857899,19.6524823 23.7142857,19.6524823 C20.2427816,19.6524823 17.4285714,18.3823681 17.4285714,16.8156028 C17.4285714,15.2488376 20.2427816,13.9787234 23.7142857,13.9787234 Z M15.8571429,6 C20.196523,6 23.7142857,7.58764273 23.7142857,9.54609929 C23.7142857,11.5045559 20.196523,13.0921986 15.8571429,13.0921986 C11.5177627,13.0921986 8,11.5045559 8,9.54609929 C8,7.58764273 11.5177627,6 15.8571429,6 Z M23.7142857,10.964539 L23.7141741,12.4271234 C23.4554652,12.4436664 23.20027,12.4647428 22.9490549,12.490155 C23.4402943,12.0288055 23.7142857,11.5111132 23.7142857,10.964539 Z" id="形状" fill="#C1C6CB"></path>
                                </g>
                            </g>
                        </g>
                    </g>
                    <g id="编组-105" transform="translate(181, 443)">
                        <g id="编组-27备份-12">
                            <polygon id="矩形备份-84" fill="#FFFFFF" opacity="0.889999986" transform="translate(270, 54) scale(-1, 1) translate(-270, -54)" points="4.57122763e-12 0 540 -4.56372939e-11 540 108 4.57122763e-12 108"></polygon>
                            <text id="科学管理模型（管理抓手）" font-family="PingFangSC-Medium, PingFang SC" font-size="18" font-weight="400" fill="#0F0F19">
                                <tspan x="162" y="44">科学管理模型（管理抓手）</tspan>
                            </text>
                        </g>
                        <g id="编组-75" transform="translate(127, 66)" fill="#303258" font-family="PingFangSC-Regular, PingFang SC" font-size="16" font-weight="normal">
                            <g id="编组-60备份-3">
                                <text id="数据模型">
                                    <tspan x="0" y="17">数据模型</tspan>
                                </text>
                            </g>
                            <text id="业务模型">
                                <tspan x="111" y="17">业务模型</tspan>
                            </text>
                            <g id="编组-60备份-6" transform="translate(223, 0)">
                                <text id="管理规则">
                                    <tspan x="0" y="17">管理规则</tspan>
                                </text>
                            </g>
                        </g>
                    </g>
                    <g id="编组-102" transform="translate(20, 273)">
                        <g id="编组-27备份-15">
                            <polygon id="矩形备份-84" fill="#F5F5F7" transform="translate(65, 148.5) scale(-1, 1) translate(-65, -148.5)" points="1.10048073e-12 0 130 -1.25502558e-10 130 297 1.10048073e-12 297"></polygon>
                            <text id="通用平台" opacity="0.900000036" font-family="AlimamaShuHeiTi-Bold, Alimama ShuHeiTi" font-size="22" font-weight="bold" fill="#0F0F19">
                                <tspan x="21" y="121.557453">通用平台</tspan>
                            </text>
                        </g>
                        <text id="·-任务管理" font-family="PingFangSC-Regular, PingFang SC" font-size="14" font-weight="normal" fill="#303258">
                            <tspan x="31.169" y="219">· 任务管理</tspan>
                        </text>
                        <text id="·-用户管理" font-family="PingFangSC-Regular, PingFang SC" font-size="14" font-weight="normal" fill="#303258">
                            <tspan x="31.169" y="163">· 用户管理</tspan>
                        </text>
                        <text id="·-权限中心" font-family="PingFangSC-Regular, PingFang SC" font-size="14" font-weight="normal" fill="#303258">
                            <tspan x="31.169" y="191">· 权限中心</tspan>
                        </text>
                    </g>
                    <g id="编组-101" transform="translate(1303, 273)">
                        <g id="编组-27备份-16">
                            <polygon id="矩形备份-84" fill="#F5F5F7" transform="translate(78.5, 148.5) scale(-1, 1) translate(-78.5, -148.5)" points="1.32904211e-12 0 157 -1.25502558e-10 157 297 1.32904211e-12 297"></polygon>
                            <text id="数据服务平台" opacity="0.900000036" font-family="AlimamaShuHeiTi-Bold, Alimama ShuHeiTi" font-size="22" font-weight="bold" fill="#0F0F19">
                                <tspan x="13" y="121.557453">数据服务平台</tspan>
                            </text>
                        </g>
                        <text id="·-集成转换" font-family="PingFangSC-Regular, PingFang SC" font-size="14" font-weight="normal" fill="#303258">
                            <tspan x="44.169" y="163">· 集成转换</tspan>
                        </text>
                        <text id="·-指标解析器" font-family="PingFangSC-Regular, PingFang SC" font-size="14" font-weight="normal" fill="#303258">
                            <tspan x="37.169" y="191">· 指标解析器</tspan>
                        </text>
                    </g>
                    <g id="编组-104" transform="translate(732, 443)">
                        <g id="编组-27备份-13">
                            <polygon id="矩形备份-84" fill="#FFFFFF" opacity="0.889999986" transform="translate(270, 54) scale(-1, 1) translate(-270, -54)" points="4.57122763e-12 0 540 -4.56372939e-11 540 108 4.57122763e-12 108"></polygon>
                            <text id="智能分析模型（决策抓手）" font-family="PingFangSC-Medium, PingFang SC" font-size="18" font-weight="400" fill="#0F0F19">
                                <tspan x="170" y="44">智能分析模型（决策抓手）</tspan>
                            </text>
                        </g>
                        <g id="编组-103" transform="translate(176, 66)" fill="#303258" font-family="PingFangSC-Regular, PingFang SC" font-size="16" font-weight="normal">
                            <text id="指标数据">
                                <tspan x="125" y="17">指标数据</tspan>
                            </text>
                            <text id="分析主题">
                                <tspan x="0" y="17">分析主题</tspan>
                            </text>
                        </g>
                    </g>
                    <g id="编组-75备份-2" transform="translate(671, 217)" fill-rule="nonzero">
                        <g id="编组备份-6">
                            <path d="M20.324418,31.4497631 L20.324418,30.3922357 C20.324418,29.2876662 19.4289875,28.3922357 18.324418,28.3922357 L7.61810351,28.3922357 C7.06581876,28.3922357 6.61810351,27.9445204 6.61810351,27.3922357 L6.61810351,21.350121 C6.61810351,20.7978362 7.06581876,20.350121 7.61810351,20.350121 L14.9749351,20.350121 C16.0795046,20.350121 16.9749351,19.4546905 16.9749351,18.350121 L16.9749351,17.2925936 C16.9749351,16.1880241 16.0795046,15.2925936 14.9749351,15.2925936 L7.61810351,15.2925936 C7.06581876,15.2925936 6.61810351,14.8448783 6.61810351,14.2925936 L6.61810351,9.32411154 C6.61810351,8.77182679 7.06581876,8.32411154 7.61810351,8.32411154 L18.324418,8.32411154 C19.4289875,8.32411154 20.324418,7.42868104 20.324418,6.32411154 L20.324418,5.29833138 C20.324418,4.19376188 19.4289875,3.29833138 18.324418,3.29833138 L2,3.29833138 C0.8954305,3.29833138 3.0881846e-16,4.19376188 0,5.29833138 L0,31.4497631 C5.7935996e-16,32.5543326 0.8954305,33.4497631 2,33.4497631 L18.324418,33.4497631 C19.4289875,33.4497631 20.324418,32.5543326 20.324418,31.4497631 Z M34.1647804,31.4497631 L34.1647804,5.29833138 C34.1647804,4.19376188 33.2693499,3.29833138 32.1647804,3.29833138 L29.5466768,3.29833138 C28.4421073,3.29833138 27.5466768,4.19376188 27.5466768,5.29833138 L27.5466768,31.4497631 C27.5466768,32.5543326 28.4421073,33.4497631 29.5466768,33.4497631 L32.1647804,33.4497631 C33.2693499,33.4497631 34.1647804,32.5543326 34.1647804,31.4497631 Z M48.2409427,31.4497631 L48.2409427,20.859905 L48.2409427,20.859905 C48.2409427,18.0002994 47.732132,13.8138484 47.3881501,10.9680844 L47.5673033,10.9680844 L50.2250441,18.0515421 L54.8628446,29.4767497 C55.1690409,30.2310632 55.9018949,30.7245094 56.7159864,30.7245094 L57.8262594,30.7245094 C58.6425655,30.7245094 59.3769479,30.2284113 59.6816779,29.4711165 L64.2768331,18.0515421 L64.2768331,18.0515421 L66.9945942,10.9680844 L67.2086835,10.9680844 C66.8396176,13.8138484 66.3308069,18.0002994 66.3308069,20.859905 L66.3308069,31.4497631 C66.3308069,32.5543326 67.2262374,33.4497631 68.3308069,33.4497631 L70.3899316,33.4497631 C71.4945011,33.4497631 72.3899316,32.5543326 72.3899316,31.4497631 L72.3899316,5.29833138 C72.3899316,4.19376188 71.4945011,3.29833138 70.3899316,3.29833138 L66.397441,3.29833138 C65.5734759,3.29833138 64.8338381,3.80365266 64.5342887,4.57123885 L59.5113857,17.4422735 L59.5113857,17.4422735 C59.0663969,18.658602 58.413157,20.5428336 57.5516661,23.0949684 C57.5312238,23.1555978 57.4743705,23.1964116 57.4103875,23.1964116 C57.3464766,23.1964116 57.2897303,23.1555305 57.2694775,23.0949134 C56.417503,20.5428066 55.7542882,18.6585933 55.279833,17.4422735 L50.1328239,4.55645925 C49.8293365,3.79666226 49.0936734,3.29833138 48.2755071,3.29833138 L44.3063307,3.29833138 C43.2017612,3.29833138 42.3063307,4.19376188 42.3063307,5.29833138 L42.3063307,31.4497631 C42.3063307,32.5543326 43.2017612,33.4497631 44.3063307,33.4497631 L46.2409427,33.4497631 C47.3455122,33.4497631 48.2409427,32.5543326 48.2409427,31.4497631 Z M124.91862,34.0106109 C132.556871,34.0106109 137.076923,29.8249847 137.076923,24.8945654 C137.076923,20.5583907 134.446081,18.2050914 130.42408,16.6991896 L126.081432,15.0769012 C123.273186,14.0455584 120.917362,13.2421598 120.917362,11.0940697 C120.917362,9.1217967 122.730347,7.93990548 125.6469,7.93990548 C127.186921,7.93990548 129.092121,8.52329667 131.362501,9.69007905 C132.177351,10.1071426 133.171505,9.91861746 133.775017,9.23036016 L134.413533,8.5069383 C135.14633,7.68044984 135.069087,6.4164779 134.241851,5.68452578 C134.122998,5.5793627 133.99205,5.48871957 133.852217,5.41366764 C130.512463,3.65070972 127.777357,2.76923077 125.6469,2.76923077 C118.964435,2.76923077 114.184598,6.57065096 114.184598,11.4791005 C114.184598,15.8657528 117.572368,18.3142939 120.918073,19.5491369 L125.330594,21.266667 C128.285713,22.4192851 130.319075,23.1323309 130.319075,25.3658851 C130.319075,27.4504807 128.506997,28.808189 125.058365,28.808189 C123.360258,28.808189 121.004558,27.965903 117.991264,26.2813311 C117.186167,25.8293016 116.176659,25.9895873 115.549279,26.6670102 L114.552185,27.7499193 C113.803315,28.5618758 113.85746,29.8270477 114.67119,30.5739863 C114.801262,30.6933819 114.946572,30.7950279 115.10404,30.8749036 C119.141406,32.9653752 122.412933,34.0106109 124.91862,34.0106109 Z" id="EIMOS" fill="#333333"></path>
                            <g id="循环" transform="translate(76.1538, 0)">
                                <rect id="矩形" fill="#000000" opacity="0" x="0" y="0" width="36.3904826" height="36"></rect>
                                <polygon id="路径" fill="#202425" opacity="0.01" points="0 0 36.3904826 0 36.3904826 36 0 36"></polygon>
                                <path d="M12.3584771,19.5519573 C13.6658251,21.0500374 16.6142947,22.851047 17.1307001,23.0768374 C17.6471056,23.3026279 17.9584,23.1773347 18.1952413,22.9431056 L20.4652813,20.6252374 C20.6387599,20.4531852 20.9000135,20.4016413 21.1269371,20.4946963 C21.3538607,20.5877513 21.5016366,20.8070268 21.5012067,21.0500374 L21.5012067,33.2984374 C21.5012067,33.4575673 21.4372973,33.6101797 21.323555,33.7227015 C21.2098127,33.8352233 21.055545,33.8984374 20.894689,33.8984374 L8.51222079,33.8984374 C8.26732789,33.8979022 8.0467885,33.7517235 7.95314522,33.5278691 C7.85950195,33.3040147 7.91113074,33.0464123 8.08402614,32.8748375 L10.2953544,30.7167976 C10.4145961,30.5862682 10.8335478,30.2080756 10.6003406,29.9654441 C10.3411147,29.6957424 8.84976923,29.0985543 6.84499252,26.4114401 C3.77555081,22.2972959 3.8604995,17.2016089 4.8231716,14.1902695 C5.58876423,11.7954154 7.26603936,9.0647589 9.55486146,7.39324716 C9.98172235,7.08151346 10.8060342,7.54043743 10.7235491,8.07443745 C10.5142215,9.44247589 10.3774104,10.8204835 10.2953544,12.2012374 C10.0725881,15.9497224 11.0511291,18.0538772 12.3584771,19.5519573 Z" id="路径" fill="url(#linearGradient-1)"></path>
                                <path d="M23.5555487,14.8719573 C24.8628966,16.3700374 27.8113663,18.171047 28.3277717,18.3968374 C28.8441771,18.6226279 29.1554716,18.4973347 29.3923129,18.2631056 L31.6623529,15.9452374 C31.8358314,15.7731852 32.0970851,15.7216413 32.3240087,15.8146963 C32.5509322,15.9077513 32.6987082,16.1270268 32.6982782,16.3700374 L32.6982782,28.6184374 C32.6982782,28.7775673 32.6343689,28.9301797 32.5206266,29.0427015 C32.4068842,29.1552233 32.2526165,29.2184374 32.0917606,29.2184374 L19.7092924,29.2184374 C19.4643995,29.2179022 19.2438601,29.0717235 19.1502168,28.8478691 C19.0565735,28.6240147 19.1082023,28.3664123 19.2810977,28.1948375 L21.492426,26.0367976 C21.6116677,25.9062682 22.0306194,25.5280756 21.7974122,25.2854441 C21.5381863,25.0157424 20.0468408,24.4185543 18.0420641,21.7314401 C14.9726224,17.6172959 15.0575711,12.5216089 16.0202432,9.51026947 C16.7858358,7.11541536 18.4631109,4.3847589 20.751933,2.71324716 C21.1787939,2.40151346 22.0031058,2.86043743 21.9206207,3.39443745 C21.7112931,4.76247589 21.574482,6.14048349 21.492426,7.52123744 C21.2696597,11.2697224 22.2482007,13.3738772 23.5555487,14.8719573 Z" id="路径" fill="url(#linearGradient-1)" transform="translate(24.0629, 15.9152) scale(-1, -1) translate(-24.0629, -15.9152)"></path>
                            </g>
                        </g>
                    </g>
                    <text id="数据集成" font-family="PingFangSC-Regular, PingFang SC" font-size="14" font-weight="normal" fill="#303258">
                        <tspan x="1147" y="628">数据集成</tspan>
                    </text>
                    <text id="LTC" font-family="PingFangSC-Semibold, PingFang SC" font-size="16" font-weight="500" fill="#0F0F19">
                        <tspan x="334.488" y="145">LTC</tspan>
                    </text>
                    <text id="IBA" font-family="PingFangSC-Semibold, PingFang SC" font-size="16" font-weight="500" fill="#0F0F19">
                        <tspan x="577.992" y="145">IBA</tspan>
                    </text>
                    <text id="应用整合：作业-|-分析" font-family="PingFangSC-Regular, PingFang SC" font-size="12" font-weight="normal" fill="#0F0F19">
                        <tspan x="413.834" y="173">应用整合：作业 | 分析</tspan>
                    </text>
                    <text id="界面整合：统一操作界面" font-family="PingFangSC-Regular, PingFang SC" font-size="12" font-weight="normal" fill="#0F0F19">
                        <tspan x="923" y="173">界面整合：统一操作界面</tspan>
                    </text>
                    <text id="IPS" font-family="PingFangSC-Semibold, PingFang SC" font-size="16" font-weight="500" fill="#0F0F19">
                        <tspan x="876.496" y="145">IPS</tspan>
                    </text>
                    <text id="…" font-family="PingFangSC-Semibold, PingFang SC" font-size="16" font-weight="500" fill="#0F0F19">
                        <tspan x="1094" y="145">…</tspan>
                    </text>
                    <text id="流程整合" font-family="PingFangSC-Regular, PingFang SC" font-size="14" font-weight="normal" fill="#303258">
                        <tspan x="261" y="628">流程整合</tspan>
                    </text>
                    <text id="执行整合" font-family="PingFangSC-Regular, PingFang SC" font-size="14" font-weight="normal" fill="#303258">
                        <tspan x="412" y="628">执行整合</tspan>
                    </text>
                    <g id="编组-72" transform="translate(306, 0)">
                        <text id="IT快速响应" opacity="0.800000012" font-family="AlimamaShuHeiTi-Bold, Alimama ShuHeiTi" font-size="20" font-weight="bold" letter-spacing="2" fill="#000323">
                            <tspan x="0.49" y="20">IT快速响应</tspan>
                        </text>
                        <text id="业务持续优化" opacity="0.800000012" font-family="AlimamaShuHeiTi-Bold, Alimama ShuHeiTi" font-size="20" font-weight="bold" letter-spacing="2" fill="#000323">
                            <tspan x="232" y="20">业务持续优化</tspan>
                        </text>
                        <text id="系统持续适配" opacity="0.800000012" font-family="AlimamaShuHeiTi-Bold, Alimama ShuHeiTi" font-size="20" font-weight="bold" letter-spacing="2" fill="#000323">
                            <tspan x="479" y="20">系统持续适配</tspan>
                        </text>
                        <text id="数字化持续变革" opacity="0.800000012" font-family="AlimamaShuHeiTi-Bold, Alimama ShuHeiTi" font-size="20" font-weight="bold" letter-spacing="2" fill="#000323">
                            <tspan x="714" y="20">数字化持续变革</tspan>
                        </text>
                        <path d="M674.5,6.7355574e-16 L696.5,13.5 L674.5,27 L674.5,18.5 L611,18.5 L611,8.5 L674.5,8.5 L674.5,6.7355574e-16 Z" id="形状结合备份-4" fill="url(#linearGradient-2)" opacity="0.699999988"></path>
                        <path d="M433.5,6.7355574e-16 L455.5,13.5 L433.5,27 L433.5,18.5 L370,18.5 L370,8.5 L433.5,8.5 L433.5,6.7355574e-16 Z" id="形状结合备份-7" fill="url(#linearGradient-2)" opacity="0.699999988"></path>
                        <path d="M190.5,6.7355574e-16 L212.5,13.5 L190.5,27 L190.5,18.5 L127,18.5 L127,8.5 L190.5,8.5 L190.5,6.7355574e-16 Z" id="形状结合备份-8" fill="url(#linearGradient-2)" opacity="0.699999988"></path>
                    </g>
                    <g id="编组-3" opacity="0.5" transform="translate(364.5, 623) rotate(-90) translate(-364.5, -623)translate(340, 597)" fill="url(#linearGradient-3)">
                        <path d="M0,2.13162821e-13 L0.132819975,0.26474832 C6.29172708,11.931987 18.0528177,18.9459033 36.1452242,20.6620692 L36.1455322,13.5 L49,26.5 L36.1455322,39.5 L36.1448632,31.3372573 C18.1566702,33.0342976 6.4813785,39.9075766 0.3328083,51.3444224 L0.132819975,51.735805 L0,52 L0,2.13162821e-13 Z" id="形状结合"></path>
                    </g>
                    <g id="编组-3备份-2" opacity="0.5" transform="translate(1115.5, 623) rotate(-90) translate(-1115.5, -623)translate(1091, 597)" fill="url(#linearGradient-3)">
                        <path d="M0,2.13162821e-13 L0.132819975,0.26474832 C6.29172708,11.931987 18.0528177,18.9459033 36.1452242,20.6620692 L36.1455322,13.5 L49,26.5 L36.1455322,39.5 L36.1448632,31.3372573 C18.1566702,33.0342976 6.4813785,39.9075766 0.3328083,51.3444224 L0.132819975,51.735805 L0,52 L0,2.13162821e-13 Z" id="形状结合"></path>
                    </g>
                    <g id="编组-3备份-3" opacity="0.5" transform="translate(739.5, 156) rotate(-90) translate(-739.5, -156)translate(707, 112)" fill="url(#linearGradient-4)">
                        <path d="M0,-3.52895304e-15 L0.176189763,0.448035619 C8.34620026,20.19267 23.9477363,32.06239 47.9480255,34.9666124 L47.9481549,22.8461538 L65,44.8461538 L47.9481549,66.8461538 L47.9477662,53.0322216 C24.0855947,55.9040339 8.59780381,67.535764 0.441480399,86.8905611 L0.176189763,87.5529007 L0,88 L0,-3.52895304e-15 Z" id="形状结合"></path>
                    </g>
                    <text id="LTC" fill="url(#linearGradient-5)" fill-rule="nonzero" opacity="0.5" font-family="Oswald-DemiBold, Oswald" font-size="32" font-weight="500">
                        <tspan x="327.867188" y="106">LTC</tspan>
                    </text>
                    <text id="IBA" fill="url(#linearGradient-5)" fill-rule="nonzero" opacity="0.5" font-family="Oswald-DemiBold, Oswald" font-size="32" font-weight="500">
                        <tspan x="569.648438" y="106">IBA</tspan>
                    </text>
                    <text id="IPS" fill="url(#linearGradient-6)" fill-rule="nonzero" opacity="0.5" font-family="Oswald-DemiBold, Oswald" font-size="32" font-weight="500">
                        <tspan x="867.585938" y="106">IPS</tspan>
                    </text>
                    <text id="…" fill="url(#linearGradient-7)" fill-rule="nonzero" opacity="0.5" font-family="Oswald-Medium, Oswald" font-size="32" font-weight="400">
                        <tspan x="1092.32812" y="98">…</tspan>
                    </text>
                </g>
            </g>
        </g>
    </g>
</svg>