<?xml version="1.0" encoding="UTF-8"?>
<svg width="132px" height="30px" viewBox="0 0 132 30" version="1.1" xmlns="http://www.w3.org/2000/svg" xmlns:xlink="http://www.w3.org/1999/xlink">
    <title>形状</title>
    <g id="PC调整" stroke="none" stroke-width="1" fill="none" fill-rule="evenodd">
        <path d="M40.012522,29.8705777 C40.4504399,29.8800196 40.8773216,29.7326858 41.2161902,29.4551442 C41.5497711,29.2035218 41.7439626,28.8083788 41.7393738,28.3905643 C41.7398214,28.1449632 41.6653252,27.9053935 41.5263132,27.7036613 L41.5038293,27.672128 C41.3554928,27.4560934 41.1502552,27.2853321 40.9108472,27.1787562 C41.1129434,27.0820189 41.2826061,26.9286862 41.3992333,26.7373773 C41.5155711,26.5409834 41.575918,26.3164856 41.5737295,26.0882308 C41.579206,25.698939 41.4215012,25.3257625 41.1399565,25.0585611 L41.1113907,25.0321975 C40.8238372,24.7630209 40.446094,24.6119666 40.0532155,24.6080001 L37.7624864,24.6081156 L37.7624864,29.8705777 L40.012522,29.8705777 Z M38.4252671,29.2819707 L38.4252671,27.4643604 L40.012522,27.4643604 C40.2710222,27.4594489 40.5229774,27.5435487 40.7264146,27.7019584 L40.7538514,27.724019 C40.9596225,27.883596 41.0789807,28.1301792 41.0764914,28.3905643 C41.078637,28.6460211 40.9587788,28.8871738 40.7538514,29.0397108 C40.5414236,29.2023081 40.279973,29.2877478 40.012522,29.2819707 L38.4252671,29.2819707 Z M38.4252671,26.8758551 L38.4252671,25.1967226 L40.012522,25.1967226 C40.2412859,25.1924883 40.4620308,25.2786915 40.6271851,25.4358371 L40.6493571,25.4577039 C40.8193397,25.6214191 40.9139923,25.8481802 40.9108472,26.0841609 C40.9134846,26.2948486 40.8221709,26.4952275 40.6626748,26.6314032 L40.6405051,26.6495695 C40.4751985,26.7927556 40.2649313,26.8727037 40.0469918,26.8759774 L38.4252671,26.8758551 Z M42.7774996,29.1956891 C43.2135198,29.6862458 43.7920539,29.9314903 44.5131017,29.9314225 C45.2341495,29.9313546 45.8098007,29.6861102 46.2400553,29.1956891 C46.6760756,28.7052681 46.8940518,28.0532387 46.893984,27.239601 C46.893984,26.414432 46.6760078,25.7508374 46.2400553,25.2488171 C45.8095972,24.7525626 45.233946,24.5044692 44.5131017,24.504537 C43.7922574,24.5046049 43.2137233,24.7526304 42.7774996,25.2486136 C42.3414793,25.750566 42.1234352,26.4141607 42.1233674,27.2393975 C42.1233674,28.0335967 42.331152,28.6738562 42.7467212,29.160176 L42.7774996,29.1956891 Z M43.2571354,25.6816493 C43.5658511,25.3089136 44.0246442,25.0931834 44.5086248,25.0931834 C44.9926055,25.0931834 45.4513986,25.3089136 45.7601142,25.6816493 C46.0739023,26.0682883 46.2308303,26.5876056 46.2308981,27.239601 C46.2308981,27.8743673 46.0739701,28.3850021 45.7601142,28.7715054 C45.4454557,29.1342891 44.988856,29.3426789 44.5086248,29.3426789 C44.0283937,29.3426789 43.5717939,29.1342891 43.2571354,28.7715054 C42.9431438,28.3848664 42.7861141,27.8742316 42.7860463,27.239601 C42.7860463,26.6067819 42.9339748,26.0989512 43.2298318,25.7161089 L43.2571354,25.6816493 Z M48.0585392,29.4593595 L48.0886985,29.4810898 C48.8972097,30.0724286 49.9912197,30.0811248 50.8081279,29.5071782 L50.8445189,29.4810898 C51.2306138,29.2102673 51.4588682,28.7669211 51.4550015,28.295329 L51.4550015,24.6081156 L50.7921191,24.6081156 L50.7921191,28.295329 C50.793346,28.6046639 50.6393048,28.893983 50.3819765,29.0656563 C49.8273344,29.4349241 49.1051707,29.4349241 48.5505286,29.0656563 C48.2932991,28.8939403 48.139402,28.6046047 48.140793,28.295329 L48.140793,24.6081156 L47.4782159,24.6081156 L47.4782159,28.295329 C47.4743308,28.7545394 47.690654,29.1869943 48.0585392,29.4593595 L48.0585392,29.4593595 Z M55.7287869,29.8705777 L55.7287869,29.2819707 L52.9460036,29.2819707 L52.9460036,24.6081156 L52.2836299,24.6081156 L52.2836299,29.8705777 L55.7287869,29.8705777 Z M57.8919304,29.8705777 C58.6122999,29.8705777 59.1878494,29.6310989 59.6185788,29.1521414 C60.0540564,28.6733195 60.2721344,28.0357043 60.2728158,27.2392958 C60.273491,26.4428873 60.055413,25.8052721 59.6185788,25.3264502 C59.1881885,24.8475605 58.6126391,24.6080817 57.8919304,24.6080139 L56.2344701,24.6080139 L56.2344701,29.8704759 L57.8919304,29.8705777 Z M56.8968437,25.1967226 L57.8919304,25.1967226 C58.3710332,25.1798219 58.8312021,25.3846083 59.1393499,25.7518548 C59.452731,26.1218751 59.6094216,26.6162643 59.6094216,27.2350224 C59.6094216,27.8537805 59.452731,28.3510525 59.1393499,28.7268385 C58.8312588,29.0941603 58.3710512,29.2989639 57.8919304,29.2819707 L56.8968437,29.2819707 L56.8968437,25.1967226 Z M64.5716279,29.8705777 L64.5716279,29.2473767 L61.5894202,29.2473767 L61.5894202,27.4643604 L64.2409498,27.4643604 L64.2409498,26.8412611 L61.5894202,26.8412611 L61.5894202,25.2313166 L64.5716279,25.2313166 L64.5716279,24.6081156 L60.9270466,24.6081156 L60.9270466,29.8705777 L64.5716279,29.8705777 Z M65.8109077,29.8708829 L65.8109077,27.7068237 L67.1712665,27.7068237 C67.4388361,27.6998014 67.7016243,27.7786378 67.9211427,27.9317866 C68.1340841,28.0673506 68.2627277,28.3025572 68.2619955,28.5549876 L68.2965895,29.5419345 C68.309597,29.6477811 68.3483772,29.7488192 68.4095288,29.8361872 L68.4268258,29.8708829 L69.0902169,29.8708829 L69.0546054,29.8103434 C69.0026929,29.7423785 68.9696947,29.661884 68.9589631,29.5770373 L68.9243691,28.5573278 C68.9236428,28.3351638 68.863198,28.1172815 68.7493641,27.9264957 C68.6363684,27.7335082 68.4816739,27.568211 68.2965895,27.4426882 C68.5561897,27.3457331 68.7789199,27.1699328 68.9335264,26.9399558 C69.0836865,26.7044963 69.1621632,26.4304641 69.1594049,26.1512122 C69.1780581,25.7267138 69.005126,25.3162708 68.6883158,25.0331133 C68.3749347,24.7500528 67.956415,24.6084887 67.4327565,24.6084209 L65.1475165,24.6084209 L65.1475165,29.8708829 L65.8109077,29.8708829 Z M65.8109077,25.1967226 L67.4327565,25.1967226 C67.7151828,25.1838405 67.9921798,25.2772862 68.209087,25.4586197 C68.4019674,25.6350344 68.5073082,25.8874801 68.4970313,26.1486685 C68.5074686,26.4149879 68.4025223,26.6728666 68.209087,26.8562179 C67.9922638,27.0377112 67.7152159,27.1312104 67.4327565,27.1182167 L65.8109077,27.1182167 L65.8109077,25.1967226 Z M70.0924259,29.8705777 L70.6255807,28.295329 L72.5435137,28.295329 L73.075651,29.8705777 L73.7390422,29.8705777 L72.0113763,24.6081156 L71.1567006,24.6081156 L69.4300522,29.8705777 L70.0924259,29.8705777 Z M71.5840385,25.4304357 L72.3522291,27.7068237 L70.8168653,27.7068237 L71.5840385,25.4304357 Z M74.9162562,29.8705777 L74.9162562,24.6081156 L74.2528651,24.6081156 L74.2528651,29.8705777 L74.9162562,29.8705777 Z M81.6051109,25.1970279 L81.6051109,29.8705777 L82.2685021,29.8705777 L82.2685021,25.1970279 L83.9341022,25.1970279 L83.9341022,24.6084209 L79.9568078,24.6084209 L79.9568078,25.1970279 L81.6051109,25.1970279 Z M88.0762269,29.8705777 L88.0762269,29.2473767 L85.094121,29.2473767 L85.094121,27.4643604 L87.7456505,27.4643604 L87.7456505,26.8412611 L85.094121,26.8412611 L85.094121,25.2313166 L88.0763286,25.2313166 L88.0763286,24.6081156 L84.4307298,24.6081156 L84.4307298,29.8705777 L88.0762269,29.8705777 Z M89.0011081,29.1954856 C89.3841949,29.6777845 89.9727393,29.9505899 90.5883629,29.931219 C91.1876534,29.931219 91.6702738,29.760996 92.0362243,29.4205502 C92.396409,29.0859379 92.5768405,28.6358426 92.5775189,28.0702644 L91.9141277,28.0702644 C91.918382,28.4183897 91.7797411,28.7530402 91.5305411,28.9961631 C91.2755621,29.2331284 90.9361006,29.3577687 90.5883629,29.3421032 C90.1172738,29.3421032 89.7394529,29.1228382 89.4549002,28.6843082 C89.1889506,28.2501613 89.0556273,27.7477764 89.0713136,27.2388888 C89.0555337,26.7229779 89.1852917,26.2130432 89.4457429,25.7674221 C89.7306348,25.3174286 90.1115082,25.0923979 90.5883629,25.0923301 C90.9181084,25.087614 91.238005,25.2047041 91.4867899,25.4211767 C91.7340081,25.6303674 91.8877752,25.9293712 91.9141277,26.2521453 L92.5775189,26.2521453 C92.5391053,25.7792204 92.3192662,25.3401087 91.965027,25.0261582 L91.9314247,24.9970948 C91.5610101,24.6707794 91.0819293,24.4948261 90.5883629,24.5038248 C89.9709612,24.4850859 89.3815363,24.7614732 89.0011081,25.2481049 C88.6053118,25.7500573 88.4075833,26.4136519 88.4079216,27.2388888 C88.4079216,28.0321194 88.5958881,28.6717856 88.9718195,29.1578873 L89.0011081,29.1949769 L89.0011081,29.1954856 Z M93.8330781,29.8705777 L93.8330781,27.3692268 L96.4846077,27.3692268 L96.4846077,29.8705777 L97.1469814,29.8705777 L97.1469814,24.6081156 L96.4846077,24.6081156 L96.4846077,26.7806198 L93.8330781,26.7806198 L93.8330781,24.6081156 L93.169687,24.6081156 L93.169687,29.8705777 L93.8330781,29.8705777 Z M98.7169392,29.8705777 L98.7169392,25.7333369 L101.368469,29.8705777 L102.030842,29.8705777 L102.030842,24.6081156 L101.368469,24.6081156 L101.368469,28.7540049 L98.7169392,24.6081156 L98.0535481,24.6081156 L98.0535481,29.8705777 L98.7169392,29.8705777 Z M103.33931,29.1954856 C103.774788,29.6860423 104.35339,29.9312868 105.075116,29.931219 C105.795485,29.931219 106.371035,29.6859745 106.801764,29.1954856 C107.237242,28.7050646 107.45532,28.0530352 107.455998,27.2393975 C107.455998,26.4142285 107.23792,25.7506339 106.801764,25.2486136 C106.371374,24.7523591 105.795825,24.5042657 105.075116,24.5043335 C104.354407,24.5044014 103.775805,24.7524948 103.33931,25.2486136 C102.902815,25.750566 102.684737,26.4141607 102.685076,27.2393975 C102.685076,28.0335967 102.892893,28.6738562 103.308527,29.160176 L103.33931,29.1954856 Z M103.818539,25.6814458 C104.127195,25.3086108 104.58601,25.0928065 105.070029,25.0928065 C105.554047,25.0928065 106.012863,25.3086108 106.321518,25.6814458 C106.635916,26.0680848 106.793285,26.5874021 106.793625,27.2393975 C106.793625,27.8741638 106.636256,28.3847986 106.321518,28.7713019 C106.006914,29.1341784 105.550294,29.3426361 105.070029,29.3426361 C104.589763,29.3426361 104.133143,29.1341784 103.818539,28.7713019 C103.505158,28.3846629 103.348128,27.8740281 103.34745,27.2393975 C103.34745,26.6065784 103.495379,26.0987477 103.791236,25.7159054 L103.818539,25.6814458 Z M111.563529,29.8705777 L111.563529,29.2819707 L108.781763,29.2819707 L108.781763,24.6081156 L108.118372,24.6081156 L108.118372,29.8705777 L111.563529,29.8705777 Z M112.471113,29.1954856 C112.906591,29.6860423 113.484853,29.9312868 114.205901,29.931219 C114.926949,29.9311511 115.502838,29.6859067 115.933567,29.1954856 C116.369045,28.7050646 116.587123,28.0530352 116.587801,27.2393975 C116.587801,26.4142285 116.369723,25.7506339 115.933567,25.2486136 C115.503177,24.7523591 114.927288,24.5042657 114.205901,24.5043335 C113.485532,24.5043335 112.907269,24.7524269 112.471113,25.2486136 C112.034618,25.750566 111.81654,26.4141607 111.816878,27.2393975 C111.816878,28.0335967 112.024696,28.6738562 112.44033,29.160176 L112.471113,29.1954856 Z M112.950342,25.6814458 C113.258997,25.3086108 113.717813,25.0928065 114.201831,25.0928065 C114.68585,25.0928065 115.144665,25.3086108 115.453321,25.6814458 C115.767719,26.0680848 115.924749,26.5874021 115.924411,27.2393975 C115.924411,27.8741638 115.76738,28.3847986 115.453321,28.7713019 C115.138717,29.1341784 114.682097,29.3426361 114.201831,29.3426361 C113.721566,29.3426361 113.264946,29.1341784 112.950342,28.7713019 C112.635943,28.3846629 112.478914,27.8740281 112.479252,27.2393975 C112.479252,26.6065784 112.627181,26.0987477 112.923038,25.7159054 L112.950342,25.6814458 Z M117.616464,29.1954856 C118.029557,29.6860423 118.575939,29.9312758 119.25561,29.931219 C119.559772,29.9334779 119.860668,29.8684343 120.13674,29.7407484 C120.410034,29.6177044 120.64516,29.4233484 120.817428,29.1780869 L120.91307,29.7407484 L121.38416,29.7407484 L121.38416,27.0575754 L119.25561,27.0575754 L119.25561,27.7068237 L120.720768,27.7068237 C120.720768,28.2030783 120.587141,28.598298 120.319885,28.8924828 C120.024817,29.2001422 119.610194,29.3637395 119.184545,29.3404529 C118.758896,29.3171664 118.364595,29.1093142 118.10485,28.7713019 C117.813854,28.3846629 117.668355,27.8740281 117.668355,27.2393975 C117.668355,26.5874021 117.813854,26.0680848 118.10485,25.6814458 C118.363529,25.3024833 118.796936,25.0807982 119.25561,25.0928388 C119.575223,25.0889167 119.885732,25.196819 120.133737,25.3971974 L120.163194,25.4216855 C120.423406,25.6285247 120.597468,25.9246834 120.65158,26.2526541 L121.313954,26.1833643 C121.234016,25.7049898 120.979521,25.2732541 120.599689,24.971658 C120.219987,24.6636966 119.744464,24.4983614 119.25561,24.5043336 C118.622988,24.4828854 118.016665,24.758196 117.616464,25.2486136 C117.209476,25.750566 117.005982,26.4141607 117.005982,27.2393975 C117.005982,28.0331242 117.19967,28.6730943 117.587048,29.1593079 L117.616464,29.1954856 Z M122.770973,29.8705777 L122.770973,24.6081156 L122.107581,24.6081156 L122.107581,29.8705777 L122.770973,29.8705777 Z M127.323138,29.8705777 L127.323138,29.2473767 L124.34093,29.2473767 L124.34093,27.4643604 L126.99246,27.4643604 L126.99246,26.8412611 L124.34093,26.8412611 L124.34093,25.2313166 L127.323138,25.2313166 L127.323138,24.6081156 L123.677539,24.6081156 L123.677539,29.8705777 L127.323138,29.8705777 Z M128.13508,29.4810898 C128.50137,29.8270299 128.983651,30 129.581924,30 C130.180197,30 130.662817,29.8499569 131.029785,29.5498708 C131.387742,29.2625838 131.588518,28.8227634 131.57108,28.36411 C131.57108,27.9603153 131.370399,27.6327538 130.969037,27.3814253 L130.934143,27.3600696 C130.608552,27.1582033 130.157812,27.0081942 129.581924,26.9100421 C129.287457,26.8694533 129.006781,26.7597285 128.76286,26.589844 C128.532175,26.4463288 128.390624,26.195065 128.387413,25.9234004 C128.382432,25.6791305 128.50453,25.449764 128.709951,25.3174964 C128.971355,25.1564783 129.275245,25.0780414 129.581924,25.0924318 C129.871576,25.0874614 130.152316,25.1926298 130.367412,25.3866845 C130.588174,25.5996192 130.732337,25.879573 130.777452,26.1829573 L131.439826,26.1829573 C131.439826,25.6753071 131.271265,25.2685222 130.934143,24.9626025 C130.597021,24.6566829 130.146281,24.5037909 129.581924,24.5039264 C129.036428,24.5039264 128.59702,24.6254831 128.263701,24.8685962 L128.230722,24.8933127 C127.912838,25.1257345 127.72542,25.495299 127.724598,25.8876707 L127.725039,25.9234004 C127.725039,26.3446335 127.916663,26.6994935 128.29991,26.9879804 C128.682381,27.2543404 129.121054,27.4290438 129.581924,27.4985474 C129.89412,27.5430179 130.197331,27.6365226 130.480351,27.7756048 C130.755419,27.9316076 130.897695,28.1387036 130.907181,28.3968927 L130.907689,28.4247513 C130.914639,28.7008622 130.786418,28.9623093 130.565429,29.1259329 L130.541399,29.1430859 C130.303311,29.3220929 129.983486,29.4115287 129.581924,29.411393 C129.225784,29.428772 128.878495,29.2970455 128.623466,29.0478506 C128.373073,28.7960325 128.240138,28.4505125 128.257177,28.0958029 L127.593785,28.0958029 C127.593785,28.6564237 127.764054,29.1080662 128.104591,29.4507305 L128.13508,29.4806828 L128.13508,29.4810898 Z M43.3735341,9.17246914 L43.818169,9.17246914 C44.1301934,9.18820603 44.2940063,9.36762009 44.3096075,9.71071133 L44.3096075,17.6907369 L42.9054974,17.6907369 L42.9054974,9.71111832 C42.9203893,9.37796147 43.0680394,9.19913442 43.3484477,9.17463715 L43.3735341,9.17287613 L43.3735341,9.17246914 Z M52.3130348,12.3785205 C52.3752362,15.1867406 51.0179298,17.2929057 48.2411157,18.6970157 C47.5233916,19.0714451 47.1646313,19.5940861 47.1646313,20.2649386 L47.1646313,21.2946194 C50.3626785,20.6236989 52.5937212,19.2585919 53.8577594,17.1992983 C55.0899169,19.2118561 57.2038826,20.5769631 60.1996565,21.2946194 L60.1996565,20.1947331 C60.1996565,19.5238127 59.848629,19.0011718 59.146574,18.6268102 C56.5255685,17.2385049 55.230667,15.1713429 55.2618695,12.4253241 L55.2618695,10.5765792 C55.2771315,9.39115759 54.6686838,8.80611173 53.4365264,8.82144163 L52.3130348,8.82144163 L52.3130348,12.3785205 Z M47.632668,1.49666746 C47.6638026,2.46421461 48.1630417,2.96345374 49.1303854,2.99438486 L51.8449982,2.99438486 C51.7665371,3.75182935 51.6335822,4.50263336 51.447167,5.24096097 L50.7217101,5.24096097 C49.036778,5.30350152 48.1631095,6.16936939 48.1007047,7.83856458 L48.1007047,15.9590011 L50.8621211,15.9590011 L50.8621211,8.35340494 C50.877451,7.77643102 51.1738742,7.48000778 51.7513908,7.46413523 L55.8001117,7.46413523 C56.3617557,7.47993995 56.6503783,7.77636319 56.6659795,8.35340494 L56.6659795,15.9590011 L59.4741997,15.9590011 L59.4741997,7.83897157 C59.4111165,6.16984421 58.537448,5.30397634 56.8531942,5.24136795 L54.5130108,5.24136795 C54.7187029,4.50228765 54.8827734,3.75225071 55.0044493,2.99479185 L59.9656382,2.99479185 L59.9656382,2.26933499 C59.9340966,1.30219483 59.4270568,0.802955695 58.4445189,0.771617586 L47.632668,0.771617586 L47.632668,1.49666746 Z M39.2782131,2.03490965 C39.3093477,3.0024568 39.8085868,3.50169594 40.7759305,3.53262706 L41.4545837,3.53262706 C41.1737617,5.48305125 40.565314,7.19138516 39.6292406,8.65762879 C39.2200923,9.259399 38.9926356,9.96613939 38.9739892,10.6935884 L38.9739892,11.7934746 C39.427608,11.574447 39.8654925,11.3242272 40.284492,11.0446159 L40.284492,19.8437056 L46.7902019,19.8437056 L46.7902019,9.14906731 C46.7433983,7.77643102 46.0335426,7.06657537 44.660635,7.01950038 L43.3735341,7.01950038 C43.7633612,6.05242805 44.0753856,4.89013694 44.3096075,3.53262706 L47.0944258,3.53262706 L47.0944258,2.80717019 C47.0630198,1.84003003 46.5559801,1.3407909 45.5733065,1.30945279 L39.2782131,1.30945279 L39.2782131,2.03490965 Z M67.3604144,4.04746741 C67.4689446,4.70271877 67.8199721,5.00694262 68.4134969,4.96013895 L69.4665794,4.96013895 C69.3942566,4.60435518 69.2884702,4.25627316 69.1506685,3.9205276 L69.1155519,3.8368509 C68.8815336,3.25987698 68.4525,2.99465619 67.828451,3.04118853 L66.9391813,3.04118853 C67.1026065,3.33554711 67.2355481,3.64574168 67.3359838,3.96694109 L67.3604144,4.04746741 Z M67.3604144,8.42361044 C67.4540217,9.12566547 67.8362517,9.45329116 68.5071042,9.40648749 L69.5133831,9.40648749 C69.4376742,8.93645334 69.2958584,8.4794913 69.0921501,8.04918109 C68.8581318,7.47220717 68.4290981,7.20698638 67.8050492,7.25351872 L66.9157795,7.25351872 C67.1554722,7.703554 67.3017211,8.08146824 67.3545263,8.38726144 L67.3604144,8.42361044 Z M67.3838162,2.66675918 L69.1623556,2.66675918 C69.5835886,2.68249607 69.8020057,2.9087138 69.817607,3.34541238 L69.817607,5.31116647 L66.7519667,5.31116647 L66.7519667,3.34541238 C66.7519667,2.91855086 66.9533264,2.69278973 67.356046,2.66812898 L67.3838162,2.66675918 Z M70.2622418,17.105691 L77.0487738,17.105691 C77.7976325,17.0588873 78.14866,17.4099148 78.1018563,18.1587735 L78.1018563,19.1416506 L69.2325611,19.1416506 L69.2325611,18.1587735 C69.1704337,17.4061636 69.5023973,17.0542895 70.2284518,17.1031513 L70.2622418,17.105691 Z M74.0301406,2.22253132 C74.0301406,2.72204178 73.8741284,3.04186685 73.562104,3.18200653 C73.156133,3.41602487 72.9533171,3.79045422 72.9536554,4.30529458 L72.9536554,4.84353677 C75.4963164,4.7967331 76.7522149,4.03227318 76.7213516,2.550157 C76.7213516,2.25393726 76.8773638,2.10572564 77.1893883,2.10552215 L78.219069,2.10552215 C78.5466947,2.10552215 78.7105075,2.26933499 78.7105075,2.59696067 L78.7105075,2.80757718 C78.694228,4.05567501 79.3884824,4.67192332 80.7932708,4.65632209 L83.0164451,4.65632209 L83.0164451,3.90746339 C82.9849034,3.39262304 82.7352839,3.11960164 82.2675864,3.08839919 L82.033568,3.08839919 C81.5960555,3.10413608 81.3854389,2.87791834 81.4017185,2.40974599 L81.4017185,2.15232582 C81.3549148,1.18525349 80.8244732,0.678213743 79.8103937,0.63120658 L75.6214654,0.63120658 C74.6538504,0.693814966 74.1234088,1.13844982 74.0301406,1.96511114 L74.0301406,2.22253132 Z M75.5512599,9.66431465 C74.9326121,9.88128475 74.2991185,10.0533447 73.6557113,10.179155 C73.1408709,10.319566 72.8678495,10.6705935 72.8366471,11.2322376 L72.8366471,11.9342926 C74.7087938,11.7628148 76.3859253,11.3961861 77.8680415,10.8344064 C79.1622647,11.3181799 80.8861998,11.6692075 83.0398469,11.8874889 L83.0398469,11.1386302 C83.0083053,10.6237899 82.7274833,10.2961642 82.1973808,10.1557532 C81.2765695,9.99974095 80.5745145,9.83592811 80.0912158,9.66431465 C81.0672608,9.00117158 81.8568845,8.09874456 82.3845955,7.0433092 C82.4721099,6.85209114 82.5198789,6.6450919 82.5250065,6.43486151 C82.4619233,5.62380141 82.0016872,5.18696717 81.1442983,5.12435878 L72.9536563,5.12435878 L72.9536563,5.63919914 C72.9841804,6.35699106 73.3586097,6.73142041 74.0769443,6.76248719 L79.4359644,6.76248719 C78.9920693,7.47080418 78.4112832,8.08341414 77.7276305,8.56442844 C77.6832948,8.52255562 77.6364008,8.48347731 77.5872195,8.44741927 C77.4455322,8.35846629 77.312357,8.25662644 77.1893883,8.14319542 C76.3774464,7.47261416 75.5193791,7.15278909 74.6151865,7.18372021 L73.2110764,7.18372021 C73.7988196,8.13512243 74.5691601,8.96032533 75.4773238,9.61186833 L75.5512599,9.66431465 Z M66.0969188,1.1226451 C64.7396124,1.13838199 64.0531586,1.80143396 64.0375574,3.11180102 L64.0375574,5.31157346 L62.5164381,5.31157346 L62.5164381,5.82641381 C62.5469623,6.49740206 62.8979898,6.84842958 63.5695207,6.87949636 L64.0375574,6.87949636 L64.0375574,7.06671104 C64.0680815,8.29941114 63.8496644,9.17307963 63.382306,9.68771649 C62.976335,10.2339628 62.7735191,10.7644044 62.7738583,11.2790412 L62.7738583,12.1215073 C65.4884711,11.5288643 66.814575,9.9063371 66.7521702,7.25392571 L66.7521702,6.87949636 L69.8178105,6.87949636 L69.8178105,9.33668897 C69.8330725,9.96073789 69.5444499,10.2649617 68.9519426,10.2493605 C68.3434949,10.2808343 68.0236698,10.60846 67.9924674,11.2322376 L67.9924674,11.7938816 L69.9348196,11.7938816 C71.6970795,11.8874889 72.5395455,10.9982192 72.4622177,9.12607246 L72.4622177,3.11180102 C72.4306761,1.81710302 71.7598236,1.15405104 70.44966,1.1226451 L69.3731756,1.1226451 C69.572032,0.81719542 69.7294215,0.486677558 69.8412123,0.139768058 L67.4308233,0.139768058 C66.8376377,0.108769106 66.4320059,0.358388673 66.213928,0.888626758 L66.0969188,1.1226451 Z M65.8863023,20.9908025 L81.4485221,20.9908025 L81.4485221,18.1825824 C81.4790463,16.2793688 80.4727674,15.3432955 78.4296855,15.3743622 L70.3326508,15.3743622 C70.6685085,15.0369745 70.9812418,14.6773311 71.2687242,14.2978779 L83.1334542,14.2978779 L83.1334542,13.6426265 C83.1019126,12.8159652 82.6494772,12.3869315 81.7761478,12.3555256 L62.5866436,12.3555256 L62.5866436,12.9639733 C62.6334473,13.8064393 63.0780822,14.2510742 63.9205482,14.2978779 L67.4074215,14.2978779 C66.3195405,15.3340817 65.0056561,16.1031848 63.5695207,16.544454 C62.961073,16.7474055 62.6490485,17.1764392 62.6334473,17.8315549 L62.6334473,18.7910301 C63.7362222,18.5975434 64.8233976,18.3237942 65.8863023,17.9719659 L65.8863023,20.9908025 Z M101.433689,3.08839919 L102.182547,3.08839919 C102.837799,3.10413608 103.165424,3.43956237 103.165424,4.09467807 L103.165424,7.95598074 L100.474214,7.95598074 L100.474214,4.09467807 C100.474214,3.45092234 100.782915,3.1158682 101.400318,3.08951562 L101.433689,3.08839919 Z M92.1665623,13.2447953 L100.450812,13.2447953 C101.230195,13.2447953 101.620225,13.6192247 101.620903,14.3680834 L101.620903,15.0233347 L91.0198724,15.0233347 L91.0198724,14.3680834 C91.0038433,13.6156515 91.3741562,13.2410786 92.1308111,13.2443645 L92.1665623,13.2447953 Z M91.0198724,16.965687 L101.620903,16.965687 L101.620903,18.8612356 L91.0198724,18.8612356 L91.0198724,16.965687 Z M97.5957879,9.898333 L106.04385,9.898333 L106.04385,3.93086523 C106.012308,2.10552215 105.084036,1.17724938 103.259032,1.14604694 L100.357204,1.14604694 C98.5318612,1.14604694 97.6113891,2.0743197 97.5957879,3.93086523 L97.5957879,9.898333 Z M85.7778615,5.38177896 C85.8083856,6.20884727 86.2374193,6.6378809 87.0649624,6.66887985 L89.4753513,6.66887985 C88.9757731,7.66749378 88.0162978,8.47095676 86.5969257,9.07926879 C86.0658058,9.32909185 85.800585,9.71132182 85.8012633,10.2259587 L85.8012633,11.0918266 C88.6094835,10.6863304 90.5674369,9.7892601 91.6751238,8.4006156 C92.7516082,9.6333157 94.4755433,10.4601805 96.8469292,10.88121 L96.8469292,10.038744 C96.8306496,9.50850592 96.5654288,9.11067473 96.0512668,8.84525045 C94.8180919,8.23680276 93.8976197,7.51134589 93.2898503,6.66887985 L96.9405365,6.66887985 L96.9405365,6.03703032 C96.9089949,5.210369 96.4643601,4.78133537 95.606632,4.74992943 L92.9622247,4.74992943 C92.9944602,4.49378764 93.0100941,4.23582895 93.0090283,3.9776689 L93.0090283,3.04159552 L96.449098,3.04159552 L96.449098,2.40974599 C96.4175564,1.56727996 95.9729215,1.13044571 95.1151934,1.09924327 L90.2476119,1.09924327 C90.3948123,0.750972496 90.5122414,0.390856521 90.5986394,0.0227588859 L89.2179312,0.0227588859 C88.2350541,-0.0394425116 87.6188058,0.39739173 87.3691862,1.33326161 C87.167772,1.7993937 86.8009944,2.17450722 86.3395055,2.38634416 C85.9631926,2.62597465 85.7340974,3.0401082 85.7310578,3.48623038 L85.7310578,4.21168724 C86.9947569,4.08701312 88.0400388,3.69698255 88.8669036,3.04159552 L90.0369954,3.04159552 L90.0369954,4.02447257 C90.0371192,4.26704987 90.021485,4.50937904 89.9901917,4.74992943 L85.7778615,4.74992943 L85.7778615,5.38177896 Z M87.8603395,20.9908025 L104.780151,20.9908025 L104.780151,14.414887 C104.780151,12.2151146 103.664664,11.1152284 101.433689,11.1152284 L91.2070871,11.1152284 C88.9829767,11.1000518 87.8674464,12.1778985 87.8603395,14.3487685 L87.8603395,20.9908025 Z M113.743054,10.0855477 L115.6152,10.0855477 C116.223648,10.0855477 116.527872,10.3819709 116.527872,10.9748174 L116.527872,11.7236761 L112.853784,11.7236761 L112.853784,10.9748174 C112.868763,10.4085282 113.154587,10.1124951 113.711255,10.0867181 L113.743054,10.0855477 Z M116.527872,13.572421 L116.527872,15.2339512 L112.853784,15.2339512 L112.853784,13.572421 L116.527872,13.572421 Z M116.691685,4.39890192 C115.323311,4.53986291 113.948577,4.61016177 112.572962,4.60951843 C113.977072,3.62664138 115.303176,2.12892398 116.551274,0.116366223 L114.679127,0.116366223 C113.399148,0.0384957717 112.439673,0.553336128 111.800701,1.66088729 C111.327943,2.44270857 110.744668,3.15209682 110.068966,3.76705239 C109.428976,4.3911013 109.155955,5.05415328 109.249901,5.75620831 C109.358771,6.47400023 109.803406,6.85623019 110.583806,6.9028982 C112.876928,6.9440385 115.169701,6.8031856 117.440543,6.48166518 C117.674562,7.10571409 118.212804,7.40213733 119.05527,7.37093488 L120.576389,7.37093488 C120.108353,5.74854336 119.609113,4.48484431 119.078672,3.57983771 C118.672701,2.72197395 118.009649,2.32414276 117.089516,2.38634416 L115.73221,2.38634416 C116.015957,2.92458635 116.321508,3.56312599 116.648863,4.30196307 L116.691685,4.39890192 Z M109.881751,21.201419 L112.853784,21.201419 L112.853784,17.0826962 L116.527872,17.0826962 L116.527872,18.1591805 C116.527872,18.7208246 116.286053,18.993846 115.802415,18.9782447 L115.708808,18.9782447 C115.037277,19.0250484 114.678449,19.4462814 114.632323,20.2419438 L114.632323,21.0844098 L116.621479,21.0844098 C118.587233,21.1466112 119.538908,20.1403324 119.476503,18.0655732 L119.476503,10.6237899 C119.429699,8.95459467 118.556031,8.09652741 116.855498,8.04958808 L112.502756,8.04958808 C110.801545,8.09639175 109.927876,8.95445901 109.881751,10.6237899 L109.881751,21.201419 Z M120.880613,18.088568 C120.849071,20.0386531 121.777344,20.9981283 123.665431,20.9669937 L127.245912,20.9669937 C129.211666,21.0291272 130.15554,20.1242563 130.077534,18.2523809 L130.077534,17.0822892 L128.62662,17.0822892 C127.939827,17.1136951 127.573199,17.417919 127.526734,17.9949607 C127.541996,18.5098011 127.292377,18.7594206 126.777875,18.7438194 L125.04614,18.7438194 C124.344085,18.7752253 124.008658,18.4397991 124.039861,17.7375405 L124.039861,16.0526085 C127.082099,15.6627814 129.118059,14.063656 130.14774,11.2552324 L128.673424,11.2552324 C127.690547,11.2084287 126.871483,11.6140605 126.216231,12.4721278 C125.731915,13.1273792 125.006458,13.6422195 124.039861,14.0166489 L124.039861,12.5657351 C124.086664,11.1148214 123.369008,10.4127664 121.886892,10.45957 L120.880613,10.45957 L120.880613,18.088568 Z M123.993057,3.2288102 L123.993057,2.31573167 C124.039861,0.849420207 123.330005,0.139564564 121.86349,0.186164738 L120.857211,0.186164738 L120.857211,6.85568754 C120.810408,8.83717851 121.73868,9.80445433 123.64203,9.757515 L127.175707,9.757515 C129.156384,9.83579244 130.108058,8.9231209 130.03073,7.01950038 L130.03073,5.943016 L128.603218,5.943016 C127.963229,5.97442194 127.620002,6.25524395 127.573538,6.78548204 C127.5888,7.30032239 127.33138,7.54994196 126.801277,7.53434074 L125.022738,7.53434074 C124.304403,7.56574668 123.961176,7.23032038 123.993057,6.52806186 L123.993057,5.26476979 C127.019016,4.87501054 129.039374,3.42409681 130.054132,0.912028593 L128.556415,0.912028593 C127.5888,0.865224924 126.738533,1.23185366 126.005615,2.01191481 C125.468794,2.57048982 124.79851,2.98246363 124.058529,3.20927861 L123.993057,3.2288102 Z M22.1227998,0 L24.9653227,0.0276321839 C25.6548329,0.0342678851 26.2873167,0.411777258 26.6204353,1.01551589 L33.2058469,12.9508091 C33.9746725,14.2521562 34.1649086,15.2259941 33.776555,15.872323 L30.0675459,21.9390084 C29.94156,22.1486841 29.7146272,22.276695 29.4700133,22.2760737 L13.0477335,22.2805475 C12.9728038,22.2805679 12.9035583,22.240601 12.8660943,22.1757095 L10.2556809,17.6542011 C10.1597189,17.4879849 9.94718141,17.4310326 9.78096517,17.5269946 C9.72800528,17.5575701 9.68405124,17.601579 9.65354193,17.654577 L8.01895215,20.4940394 C7.95707147,20.6015144 7.95715427,20.7338211 8.01916942,20.8412185 L10.8923625,25.8169974 C10.9543235,25.9243012 11.068731,25.9904968 11.1926391,25.9907361 L27.5683108,26.0223567 C27.7602389,26.0227312 27.9155238,26.1786233 27.91515,26.3705515 C27.91515,26.4304011 27.8994608,26.4892061 27.8699427,26.5412702 L26.4679343,29.0141345 C26.1278494,29.6139766 25.491038,29.9841393 24.8014972,29.9830582 L11.1699836,29.9561788 C9.65906579,29.9977033 8.71509968,29.6919614 8.33808527,29.0389533 L4.63500697,22.6250336 C4.51269961,22.413191 4.51075799,22.1526502 4.62989452,21.9390084 L12.7097691,7.44491007 C12.7467904,7.37849926 12.8168631,7.33733443 12.8928958,7.33733054 L18.1646406,7.33706095 C18.3565691,7.33705114 18.5121499,7.18145439 18.5121401,6.98952589 C18.512137,6.92839414 18.4960081,6.86834486 18.4653812,6.81543846 L16.8667149,4.05381835 C16.8045791,3.9464906 16.6899568,3.880409 16.5659403,3.88041696 L10.8201929,3.88078571 C10.6962846,3.88079366 10.5817537,3.94677564 10.5195925,4.05396355 L2.30437237,18.2199009 C2.20808395,18.3859283 1.99543498,18.4424629 1.82940761,18.3461745 C1.77763473,18.3161485 1.73449387,18.2732605 1.70416411,18.2216651 L0.263605087,15.771058 C-0.0858309901,15.1766148 -0.0879955727,14.4400386 0.257940709,13.8435519 L7.09674608,2.05162196 C7.81624376,0.72236651 8.553007,0.0577387862 9.30703582,0.0577387862 L16.7131924,0.0577387862 C16.9578071,0.0577387862 17.1844129,0.18632768 17.3098639,0.39632387 L25.6497756,14.6378699 C25.7118715,14.7439073 25.7133519,14.8748547 25.6536691,14.9822688 L23.0175678,19.7265938 C22.9243492,19.894364 22.9847852,20.1059372 23.1525554,20.1991558 C23.2025089,20.2269116 23.2585363,20.2419201 23.3156753,20.242852 L26.4597417,20.2605888 C26.5837418,20.2626059 26.6994197,20.19839 26.7632861,20.092083 L29.7202307,15.200337 C29.7840414,15.0941228 29.7864715,14.9619674 29.726609,14.853479 L21.8151818,0.515663836 C21.7224608,0.347618132 21.7835235,0.136224919 21.9515692,0.0435038783 C22.0039714,0.0145903625 22.0629528,0 22.1227998,0 Z" id="形状" fill="#F96F25"></path>
    </g>
</svg>